<svg width="1024" height="753" viewBox="0 0 1024 753" fill="none" xmlns="http://www.w3.org/2000/svg">
<g clip-path="url(#clip0_122_130)">
<rect width="1024" height="753" fill="#121214"/>
<g opacity="0.2" filter="url(#filter0_f_122_130)">
<ellipse cx="549.5" cy="32" rx="670.5" ry="350" fill="#35875D"/>
</g>
<path d="M70.0349 268C71.5302 268 72.6622 268.63 73.4308 269.891C74.2134 271.138 74.6047 272.953 74.6047 275.336C74.6047 277.719 74.2134 279.541 73.4308 280.802C72.6622 282.063 71.5302 282.693 70.0349 282.693C68.5536 282.693 67.4216 282.063 66.639 280.802C65.8564 279.541 65.4651 277.719 65.4651 275.336C65.4651 272.967 65.8564 271.152 66.639 269.891C67.4216 268.63 68.5536 268 70.0349 268ZM66.9534 275.336C66.9534 277.026 67.1072 278.35 67.4146 279.306L72.0683 270.099C71.5791 269.448 70.9013 269.122 70.0349 269.122C69.0706 269.122 68.316 269.635 67.771 270.66C67.2259 271.672 66.9534 273.23 66.9534 275.336ZM70.0349 281.55C71.0131 281.55 71.7748 281.044 72.3198 280.033C72.8648 279.008 73.1373 277.442 73.1373 275.336C73.1373 273.549 72.9627 272.163 72.6133 271.18L67.9596 280.469C68.4627 281.19 69.1545 281.55 70.0349 281.55Z" fill="url(#paint0_linear_122_130)" fill-opacity="0.6"/>
<path d="M71.2926 305.135H74.3741V306.236H66.3874V305.135H69.9511V293.455L66.5551 295.471L65.9682 294.536L70.1607 291.959H71.2926V305.135Z" fill="url(#paint1_linear_122_130)" fill-opacity="0.6"/>
<path d="M70.0349 315.502C71.5302 315.502 72.6622 316.133 73.4308 317.393C74.2134 318.64 74.6047 320.455 74.6047 322.838C74.6047 325.221 74.2134 327.043 73.4308 328.304C72.6622 329.565 71.5302 330.195 70.0349 330.195C68.5536 330.195 67.4216 329.565 66.639 328.304C65.8564 327.043 65.4651 325.221 65.4651 322.838C65.4651 320.469 65.8564 318.654 66.639 317.393C67.4216 316.133 68.5536 315.502 70.0349 315.502ZM66.9534 322.838C66.9534 324.529 67.1072 325.852 67.4146 326.808L72.0683 317.601C71.5791 316.95 70.9013 316.624 70.0349 316.624C69.0706 316.624 68.316 317.137 67.771 318.162C67.2259 319.174 66.9534 320.732 66.9534 322.838ZM70.0349 329.052C71.0131 329.052 71.7748 328.546 72.3198 327.535C72.8648 326.51 73.1373 324.944 73.1373 322.838C73.1373 321.051 72.9627 319.665 72.6133 318.682L67.9596 327.971C68.4627 328.692 69.1545 329.052 70.0349 329.052Z" fill="url(#paint2_linear_122_130)" fill-opacity="0.6"/>
<path d="M71.2926 352.637H74.3741V353.738H66.3874V352.637H69.9511V340.957L66.5551 342.973L65.9682 342.038L70.1607 339.461H71.2926V352.637Z" fill="url(#paint3_linear_122_130)" fill-opacity="0.6"/>
<path d="M71.2926 376.388H74.3741V377.489H66.3874V376.388H69.9511V364.708L66.5551 366.724L65.9682 365.789L70.1607 363.212H71.2926V376.388Z" fill="url(#paint4_linear_122_130)" fill-opacity="0.6"/>
<path d="M70.0349 386.755C71.5302 386.755 72.6622 387.386 73.4308 388.646C74.2134 389.893 74.6047 391.708 74.6047 394.091C74.6047 396.474 74.2134 398.296 73.4308 399.557C72.6622 400.818 71.5302 401.448 70.0349 401.448C68.5536 401.448 67.4216 400.818 66.639 399.557C65.8564 398.296 65.4651 396.474 65.4651 394.091C65.4651 391.722 65.8564 389.907 66.639 388.646C67.4216 387.386 68.5536 386.755 70.0349 386.755ZM66.9534 394.091C66.9534 395.782 67.1072 397.105 67.4146 398.061L72.0683 388.854C71.5791 388.203 70.9013 387.878 70.0349 387.878C69.0706 387.878 68.316 388.39 67.771 389.415C67.2259 390.427 66.9534 391.985 66.9534 394.091ZM70.0349 400.305C71.0131 400.305 71.7748 399.8 72.3198 398.788C72.8648 397.763 73.1373 396.197 73.1373 394.091C73.1373 392.304 72.9627 390.919 72.6133 389.935L67.9596 399.225C68.4627 399.945 69.1545 400.305 70.0349 400.305Z" fill="url(#paint5_linear_122_130)" fill-opacity="0.6"/>
<path d="M71.2926 423.89H74.3741V424.992H66.3874V423.89H69.9511V412.21L66.5551 414.226L65.9682 413.291L70.1607 410.714H71.2926V423.89Z" fill="url(#paint6_linear_122_130)" fill-opacity="0.6"/>
<path d="M70.0349 434.257C71.5302 434.257 72.6622 434.888 73.4308 436.149C74.2134 437.396 74.6047 439.211 74.6047 441.594C74.6047 443.977 74.2134 445.798 73.4308 447.059C72.6622 448.32 71.5302 448.95 70.0349 448.95C68.5536 448.95 67.4216 448.32 66.639 447.059C65.8564 445.798 65.4651 443.977 65.4651 441.594C65.4651 439.224 65.8564 437.409 66.639 436.149C67.4216 434.888 68.5536 434.257 70.0349 434.257ZM66.9534 441.594C66.9534 443.284 67.1072 444.607 67.4146 445.563L72.0683 436.356C71.5791 435.705 70.9013 435.38 70.0349 435.38C69.0706 435.38 68.316 435.892 67.771 436.918C67.2259 437.929 66.9534 439.488 66.9534 441.594ZM70.0349 447.807C71.0131 447.807 71.7748 447.302 72.3198 446.29C72.8648 445.265 73.1373 443.699 73.1373 441.594C73.1373 439.806 72.9627 438.421 72.6133 437.437L67.9596 446.727C68.4627 447.447 69.1545 447.807 70.0349 447.807Z" fill="url(#paint7_linear_122_130)" fill-opacity="0.6"/>
<path d="M70.0349 458.008C71.5302 458.008 72.6622 458.639 73.4308 459.9C74.2134 461.147 74.6047 462.962 74.6047 465.345C74.6047 467.728 74.2134 469.549 73.4308 470.81C72.6622 472.071 71.5302 472.701 70.0349 472.701C68.5536 472.701 67.4216 472.071 66.639 470.81C65.8564 469.549 65.4651 467.728 65.4651 465.345C65.4651 462.975 65.8564 461.16 66.639 459.9C67.4216 458.639 68.5536 458.008 70.0349 458.008ZM66.9534 465.345C66.9534 467.035 67.1072 468.358 67.4146 469.314L72.0683 460.107C71.5791 459.456 70.9013 459.131 70.0349 459.131C69.0706 459.131 68.316 459.643 67.771 460.669C67.2259 461.68 66.9534 463.239 66.9534 465.345ZM70.0349 471.558C71.0131 471.558 71.7748 471.053 72.3198 470.041C72.8648 469.016 73.1373 467.451 73.1373 465.345C73.1373 463.557 72.9627 462.172 72.6133 461.188L67.9596 470.478C68.4627 471.198 69.1545 471.558 70.0349 471.558Z" fill="url(#paint8_linear_122_130)" fill-opacity="0.6"/>
<path d="M71.2926 495.143H74.3741V496.245H66.3874V495.143H69.9511V483.464L66.5551 485.48L65.9682 484.544L70.1607 481.967H71.2926V495.143Z" fill="url(#paint9_linear_122_130)" fill-opacity="0.6"/>
<path d="M70.0349 505.511C71.5302 505.511 72.6622 506.141 73.4308 507.402C74.2134 508.649 74.6047 510.464 74.6047 512.847C74.6047 515.23 74.2134 517.052 73.4308 518.312C72.6622 519.573 71.5302 520.204 70.0349 520.204C68.5536 520.204 67.4216 519.573 66.639 518.312C65.8564 517.052 65.4651 515.23 65.4651 512.847C65.4651 510.478 65.8564 508.663 66.639 507.402C67.4216 506.141 68.5536 505.511 70.0349 505.511ZM66.9534 512.847C66.9534 514.537 67.1072 515.86 67.4146 516.816L72.0683 507.61C71.5791 506.958 70.9013 506.633 70.0349 506.633C69.0706 506.633 68.316 507.145 67.771 508.171C67.2259 509.182 66.9534 510.741 66.9534 512.847ZM70.0349 519.061C71.0131 519.061 71.7748 518.555 72.3198 517.543C72.8648 516.518 73.1373 514.953 73.1373 512.847C73.1373 511.059 72.9627 509.674 72.6133 508.69L67.9596 517.98C68.4627 518.7 69.1545 519.061 70.0349 519.061Z" fill="url(#paint10_linear_122_130)" fill-opacity="0.6"/>
<path d="M71.2926 542.645H74.3741V543.747H66.3874V542.645H69.9511V530.966L66.5551 532.982L65.9682 532.046L70.1607 529.469H71.2926V542.645Z" fill="url(#paint11_linear_122_130)" fill-opacity="0.6"/>
<path d="M71.2926 566.396H74.3741V567.498H66.3874V566.396H69.9511V554.717L66.5551 556.733L65.9682 555.798L70.1607 553.221H71.2926V566.396Z" fill="url(#paint12_linear_122_130)" fill-opacity="0.6"/>
<path d="M108.965 315.502C110.46 315.502 111.592 316.133 112.361 317.393C113.144 318.64 113.535 320.455 113.535 322.838C113.535 325.221 113.144 327.043 112.361 328.304C111.592 329.565 110.46 330.195 108.965 330.195C107.484 330.195 106.352 329.565 105.569 328.304C104.787 327.043 104.395 325.221 104.395 322.838C104.395 320.469 104.787 318.654 105.569 317.393C106.352 316.133 107.484 315.502 108.965 315.502ZM105.884 322.838C105.884 324.529 106.037 325.852 106.345 326.808L110.998 317.601C110.509 316.95 109.832 316.624 108.965 316.624C108.001 316.624 107.246 317.137 106.701 318.162C106.156 319.174 105.884 320.732 105.884 322.838ZM108.965 329.052C109.943 329.052 110.705 328.546 111.25 327.535C111.795 326.51 112.068 324.944 112.068 322.838C112.068 321.051 111.893 319.665 111.543 318.682L106.89 327.971C107.393 328.692 108.085 329.052 108.965 329.052Z" fill="url(#paint13_linear_122_130)" fill-opacity="0.6"/>
<path d="M110.223 352.637H113.304V353.738H105.318V352.637H108.881V340.957L105.485 342.973L104.898 342.038L109.091 339.461H110.223V352.637Z" fill="url(#paint14_linear_122_130)" fill-opacity="0.6"/>
<path d="M108.965 363.004C110.46 363.004 111.592 363.635 112.361 364.895C113.144 366.142 113.535 367.957 113.535 370.34C113.535 372.723 113.144 374.545 112.361 375.806C111.592 377.067 110.46 377.697 108.965 377.697C107.484 377.697 106.352 377.067 105.569 375.806C104.787 374.545 104.395 372.723 104.395 370.34C104.395 367.971 104.787 366.156 105.569 364.895C106.352 363.635 107.484 363.004 108.965 363.004ZM105.884 370.34C105.884 372.031 106.037 373.354 106.345 374.31L110.998 365.103C110.509 364.452 109.832 364.126 108.965 364.126C108.001 364.126 107.246 364.639 106.701 365.664C106.156 366.676 105.884 368.234 105.884 370.34ZM108.965 376.554C109.943 376.554 110.705 376.049 111.25 375.037C111.795 374.012 112.068 372.446 112.068 370.34C112.068 368.553 111.893 367.168 111.543 366.184L106.89 375.474C107.393 376.194 108.085 376.554 108.965 376.554Z" fill="url(#paint15_linear_122_130)" fill-opacity="0.6"/>
<path d="M108.965 386.755C110.46 386.755 111.592 387.386 112.361 388.646C113.144 389.893 113.535 391.708 113.535 394.091C113.535 396.474 113.144 398.296 112.361 399.557C111.592 400.818 110.46 401.448 108.965 401.448C107.484 401.448 106.352 400.818 105.569 399.557C104.787 398.296 104.395 396.474 104.395 394.091C104.395 391.722 104.787 389.907 105.569 388.646C106.352 387.386 107.484 386.755 108.965 386.755ZM105.884 394.091C105.884 395.782 106.037 397.105 106.345 398.061L110.998 388.854C110.509 388.203 109.832 387.878 108.965 387.878C108.001 387.878 107.246 388.39 106.701 389.415C106.156 390.427 105.884 391.985 105.884 394.091ZM108.965 400.305C109.943 400.305 110.705 399.8 111.25 398.788C111.795 397.763 112.068 396.197 112.068 394.091C112.068 392.304 111.893 390.919 111.543 389.935L106.89 399.225C107.393 399.945 108.085 400.305 108.965 400.305Z" fill="url(#paint16_linear_122_130)" fill-opacity="0.6"/>
<path d="M110.223 423.89H113.304V424.992H105.318V423.89H108.881V412.21L105.485 414.226L104.898 413.291L109.091 410.714H110.223V423.89Z" fill="url(#paint17_linear_122_130)" fill-opacity="0.6"/>
<path d="M108.965 434.257C110.46 434.257 111.592 434.888 112.361 436.149C113.144 437.396 113.535 439.211 113.535 441.594C113.535 443.977 113.144 445.798 112.361 447.059C111.592 448.32 110.46 448.95 108.965 448.95C107.484 448.95 106.352 448.32 105.569 447.059C104.787 445.798 104.395 443.977 104.395 441.594C104.395 439.224 104.787 437.409 105.569 436.149C106.352 434.888 107.484 434.257 108.965 434.257ZM105.884 441.594C105.884 443.284 106.037 444.607 106.345 445.563L110.998 436.356C110.509 435.705 109.832 435.38 108.965 435.38C108.001 435.38 107.246 435.892 106.701 436.918C106.156 437.929 105.884 439.488 105.884 441.594ZM108.965 447.807C109.943 447.807 110.705 447.302 111.25 446.29C111.795 445.265 112.068 443.699 112.068 441.594C112.068 439.806 111.893 438.421 111.543 437.437L106.89 446.727C107.393 447.447 108.085 447.807 108.965 447.807Z" fill="url(#paint18_linear_122_130)" fill-opacity="0.6"/>
<path d="M110.223 471.392H113.304V472.494H105.318V471.392H108.881V459.713L105.485 461.728L104.898 460.793L109.091 458.216H110.223V471.392Z" fill="url(#paint19_linear_122_130)" fill-opacity="0.6"/>
<path d="M108.965 481.76C110.46 481.76 111.592 482.39 112.361 483.651C113.144 484.898 113.535 486.713 113.535 489.096C113.535 491.479 113.144 493.301 112.361 494.561C111.592 495.822 110.46 496.453 108.965 496.453C107.484 496.453 106.352 495.822 105.569 494.561C104.787 493.301 104.395 491.479 104.395 489.096C104.395 486.726 104.787 484.911 105.569 483.651C106.352 482.39 107.484 481.76 108.965 481.76ZM105.884 489.096C105.884 490.786 106.037 492.109 106.345 493.065L110.998 483.859C110.509 483.207 109.832 482.882 108.965 482.882C108.001 482.882 107.246 483.394 106.701 484.42C106.156 485.431 105.884 486.99 105.884 489.096ZM108.965 495.31C109.943 495.31 110.705 494.804 111.25 493.792C111.795 492.767 112.068 491.202 112.068 489.096C112.068 487.308 111.893 485.923 111.543 484.939L106.89 494.229C107.393 494.949 108.085 495.31 108.965 495.31Z" fill="url(#paint20_linear_122_130)" fill-opacity="0.6"/>
<path d="M108.965 505.511C110.46 505.511 111.592 506.141 112.361 507.402C113.144 508.649 113.535 510.464 113.535 512.847C113.535 515.23 113.144 517.052 112.361 518.312C111.592 519.573 110.46 520.204 108.965 520.204C107.484 520.204 106.352 519.573 105.569 518.312C104.787 517.052 104.395 515.23 104.395 512.847C104.395 510.478 104.787 508.663 105.569 507.402C106.352 506.141 107.484 505.511 108.965 505.511ZM105.884 512.847C105.884 514.537 106.037 515.86 106.345 516.816L110.998 507.61C110.509 506.958 109.832 506.633 108.965 506.633C108.001 506.633 107.246 507.145 106.701 508.171C106.156 509.182 105.884 510.741 105.884 512.847ZM108.965 519.061C109.943 519.061 110.705 518.555 111.25 517.543C111.795 516.518 112.068 514.953 112.068 512.847C112.068 511.059 111.893 509.674 111.543 508.69L106.89 517.98C107.393 518.7 108.085 519.061 108.965 519.061Z" fill="url(#paint21_linear_122_130)" fill-opacity="0.6"/>
<path d="M110.223 542.645H113.304V543.747H105.318V542.645H108.881V530.966L105.485 532.982L104.898 532.046L109.091 529.469H110.223V542.645Z" fill="url(#paint22_linear_122_130)" fill-opacity="0.6"/>
<path d="M108.965 553.013C110.46 553.013 111.592 553.643 112.361 554.904C113.144 556.151 113.535 557.966 113.535 560.349C113.535 562.732 113.144 564.554 112.361 565.815C111.592 567.075 110.46 567.706 108.965 567.706C107.484 567.706 106.352 567.075 105.569 565.815C104.787 564.554 104.395 562.732 104.395 560.349C104.395 557.98 104.787 556.165 105.569 554.904C106.352 553.643 107.484 553.013 108.965 553.013ZM105.884 560.349C105.884 562.039 106.037 563.362 106.345 564.318L110.998 555.112C110.509 554.461 109.832 554.135 108.965 554.135C108.001 554.135 107.246 554.648 106.701 555.673C106.156 556.684 105.884 558.243 105.884 560.349ZM108.965 566.563C109.943 566.563 110.705 566.057 111.25 565.046C111.795 564.02 112.068 562.455 112.068 560.349C112.068 558.562 111.893 557.176 111.543 556.192L106.89 565.482C107.393 566.202 108.085 566.563 108.965 566.563Z" fill="url(#paint23_linear_122_130)" fill-opacity="0.6"/>
<path d="M110.223 590.148H113.304V591.249H105.318V590.148H108.881V578.468L105.485 580.484L104.898 579.549L109.091 576.972H110.223V590.148Z" fill="url(#paint24_linear_122_130)" fill-opacity="0.6"/>
<path d="M110.223 613.899H113.304V615H105.318V613.899H108.881V602.219L105.485 604.235L104.898 603.3L109.091 600.723H110.223V613.899Z" fill="url(#paint25_linear_122_130)" fill-opacity="0.6"/>
<path d="M50.5698 339.253C52.0651 339.253 53.1971 339.884 53.9657 341.144C54.7483 342.391 55.1396 344.206 55.1396 346.589C55.1396 348.972 54.7483 350.794 53.9657 352.055C53.1971 353.316 52.0651 353.946 50.5698 353.946C49.0885 353.946 47.9565 353.316 47.1739 352.055C46.3913 350.794 46 348.972 46 346.589C46 344.22 46.3913 342.405 47.1739 341.144C47.9565 339.884 49.0885 339.253 50.5698 339.253ZM47.4883 346.589C47.4883 348.28 47.6421 349.603 47.9495 350.559L52.6032 341.352C52.114 340.701 51.4363 340.375 50.5698 340.375C49.6055 340.375 48.8509 340.888 48.3059 341.913C47.7608 342.925 47.4883 344.483 47.4883 346.589ZM50.5698 352.803C51.5481 352.803 52.3097 352.297 52.8547 351.286C53.3997 350.261 53.6722 348.695 53.6722 346.589C53.6722 344.802 53.4976 343.417 53.1482 342.433L48.4945 351.722C48.9976 352.443 49.6894 352.803 50.5698 352.803Z" fill="url(#paint26_linear_122_130)" fill-opacity="0.6"/>
<path d="M50.5698 363.004C52.0651 363.004 53.1971 363.635 53.9657 364.895C54.7483 366.142 55.1396 367.957 55.1396 370.34C55.1396 372.723 54.7483 374.545 53.9657 375.806C53.1971 377.067 52.0651 377.697 50.5698 377.697C49.0885 377.697 47.9565 377.067 47.1739 375.806C46.3913 374.545 46 372.723 46 370.34C46 367.971 46.3913 366.156 47.1739 364.895C47.9565 363.635 49.0885 363.004 50.5698 363.004ZM47.4883 370.34C47.4883 372.031 47.6421 373.354 47.9495 374.31L52.6032 365.103C52.114 364.452 51.4363 364.126 50.5698 364.126C49.6055 364.126 48.8509 364.639 48.3059 365.664C47.7608 366.676 47.4883 368.234 47.4883 370.34ZM50.5698 376.554C51.5481 376.554 52.3097 376.049 52.8547 375.037C53.3997 374.012 53.6722 372.446 53.6722 370.34C53.6722 368.553 53.4976 367.168 53.1482 366.184L48.4945 375.474C48.9976 376.194 49.6894 376.554 50.5698 376.554Z" fill="url(#paint27_linear_122_130)" fill-opacity="0.6"/>
<path d="M51.8276 400.139H54.909V401.24H46.9223V400.139H50.486V388.459L47.09 390.475L46.5031 389.54L50.6956 386.963H51.8276V400.139Z" fill="url(#paint28_linear_122_130)" fill-opacity="0.6"/>
<path d="M50.5698 410.506C52.0651 410.506 53.1971 411.137 53.9657 412.398C54.7483 413.644 55.1396 415.459 55.1396 417.842C55.1396 420.225 54.7483 422.047 53.9657 423.308C53.1971 424.569 52.0651 425.199 50.5698 425.199C49.0885 425.199 47.9565 424.569 47.1739 423.308C46.3913 422.047 46 420.225 46 417.842C46 415.473 46.3913 413.658 47.1739 412.398C47.9565 411.137 49.0885 410.506 50.5698 410.506ZM47.4883 417.842C47.4883 419.533 47.6421 420.856 47.9495 421.812L52.6032 412.605C52.114 411.954 51.4363 411.629 50.5698 411.629C49.6055 411.629 48.8509 412.141 48.3059 413.166C47.7608 414.178 47.4883 415.737 47.4883 417.842ZM50.5698 424.056C51.5481 424.056 52.3097 423.551 52.8547 422.539C53.3997 421.514 53.6722 419.948 53.6722 417.842C53.6722 416.055 53.4976 414.67 53.1482 413.686L48.4945 422.976C48.9976 423.696 49.6894 424.056 50.5698 424.056Z" fill="url(#paint29_linear_122_130)" fill-opacity="0.6"/>
<path d="M51.8276 447.641H54.909V448.743H46.9223V447.641H50.486V435.962L47.09 437.977L46.5031 437.042L50.6956 434.465H51.8276V447.641Z" fill="url(#paint30_linear_122_130)" fill-opacity="0.6"/>
<path d="M51.8276 471.392H54.909V472.494H46.9223V471.392H50.486V459.713L47.09 461.728L46.5031 460.793L50.6956 458.216H51.8276V471.392Z" fill="url(#paint31_linear_122_130)" fill-opacity="0.6"/>
<path d="M90.7577 305.135H93.8392V306.236H85.8525V305.135H89.4162V293.455L86.0202 295.471L85.4333 294.536L89.6258 291.959H90.7577V305.135Z" fill="url(#paint32_linear_122_130)" fill-opacity="0.6"/>
<path d="M89.5 315.502C90.9953 315.502 92.1273 316.133 92.8959 317.393C93.6785 318.64 94.0698 320.455 94.0698 322.838C94.0698 325.221 93.6785 327.043 92.8959 328.304C92.1273 329.565 90.9953 330.195 89.5 330.195C88.0187 330.195 86.8867 329.565 86.1041 328.304C85.3215 327.043 84.9302 325.221 84.9302 322.838C84.9302 320.469 85.3215 318.654 86.1041 317.393C86.8867 316.133 88.0187 315.502 89.5 315.502ZM86.4185 322.838C86.4185 324.529 86.5723 325.852 86.8797 326.808L91.5334 317.601C91.0442 316.95 90.3664 316.624 89.5 316.624C88.5357 316.624 87.7811 317.137 87.2361 318.162C86.691 319.174 86.4185 320.732 86.4185 322.838ZM89.5 329.052C90.4782 329.052 91.2399 328.546 91.7849 327.535C92.3299 326.51 92.6024 324.944 92.6024 322.838C92.6024 321.051 92.4277 319.665 92.0784 318.682L87.4247 327.971C87.9278 328.692 88.6196 329.052 89.5 329.052Z" fill="url(#paint33_linear_122_130)" fill-opacity="0.6"/>
<path d="M90.7577 352.637H93.8392V353.738H85.8525V352.637H89.4162V340.957L86.0202 342.973L85.4333 342.038L89.6258 339.461H90.7577V352.637Z" fill="url(#paint34_linear_122_130)" fill-opacity="0.6"/>
<path d="M90.7577 376.388H93.8392V377.489H85.8525V376.388H89.4162V364.708L86.0202 366.724L85.4333 365.789L89.6258 363.212H90.7577V376.388Z" fill="url(#paint35_linear_122_130)" fill-opacity="0.6"/>
<path d="M89.5 386.755C90.9953 386.755 92.1273 387.386 92.8959 388.646C93.6785 389.893 94.0698 391.708 94.0698 394.091C94.0698 396.474 93.6785 398.296 92.8959 399.557C92.1273 400.818 90.9953 401.448 89.5 401.448C88.0187 401.448 86.8867 400.818 86.1041 399.557C85.3215 398.296 84.9302 396.474 84.9302 394.091C84.9302 391.722 85.3215 389.907 86.1041 388.646C86.8867 387.386 88.0187 386.755 89.5 386.755ZM86.4185 394.091C86.4185 395.782 86.5723 397.105 86.8797 398.061L91.5334 388.854C91.0442 388.203 90.3664 387.878 89.5 387.878C88.5357 387.878 87.7811 388.39 87.2361 389.415C86.691 390.427 86.4185 391.985 86.4185 394.091ZM89.5 400.305C90.4782 400.305 91.2399 399.8 91.7849 398.788C92.3299 397.763 92.6024 396.197 92.6024 394.091C92.6024 392.304 92.4277 390.919 92.0784 389.935L87.4247 399.225C87.9278 399.945 88.6196 400.305 89.5 400.305Z" fill="url(#paint36_linear_122_130)" fill-opacity="0.6"/>
<path d="M90.7577 423.89H93.8392V424.992H85.8525V423.89H89.4162V412.21L86.0202 414.226L85.4333 413.291L89.6258 410.714H90.7577V423.89Z" fill="url(#paint37_linear_122_130)" fill-opacity="0.6"/>
<path d="M90.7577 447.641H93.8392V448.743H85.8525V447.641H89.4162V435.962L86.0202 437.977L85.4333 437.042L89.6258 434.465H90.7577V447.641Z" fill="url(#paint38_linear_122_130)" fill-opacity="0.6"/>
<path d="M89.5 458.008C90.9953 458.008 92.1273 458.639 92.8959 459.9C93.6785 461.147 94.0698 462.962 94.0698 465.345C94.0698 467.728 93.6785 469.549 92.8959 470.81C92.1273 472.071 90.9953 472.701 89.5 472.701C88.0187 472.701 86.8867 472.071 86.1041 470.81C85.3215 469.549 84.9302 467.728 84.9302 465.345C84.9302 462.975 85.3215 461.16 86.1041 459.9C86.8867 458.639 88.0187 458.008 89.5 458.008ZM86.4185 465.345C86.4185 467.035 86.5723 468.358 86.8797 469.314L91.5334 460.107C91.0442 459.456 90.3664 459.131 89.5 459.131C88.5357 459.131 87.7811 459.643 87.2361 460.669C86.691 461.68 86.4185 463.239 86.4185 465.345ZM89.5 471.558C90.4782 471.558 91.2399 471.053 91.7849 470.041C92.3299 469.016 92.6024 467.451 92.6024 465.345C92.6024 463.557 92.4277 462.172 92.0784 461.188L87.4247 470.478C87.9278 471.198 88.6196 471.558 89.5 471.558Z" fill="url(#paint39_linear_122_130)" fill-opacity="0.6"/>
<path d="M90.7577 495.143H93.8392V496.245H85.8525V495.143H89.4162V483.464L86.0202 485.48L85.4333 484.544L89.6258 481.967H90.7577V495.143Z" fill="url(#paint40_linear_122_130)" fill-opacity="0.6"/>
<path d="M89.5 505.511C90.9953 505.511 92.1273 506.141 92.8959 507.402C93.6785 508.649 94.0698 510.464 94.0698 512.847C94.0698 515.23 93.6785 517.052 92.8959 518.312C92.1273 519.573 90.9953 520.204 89.5 520.204C88.0187 520.204 86.8867 519.573 86.1041 518.312C85.3215 517.052 84.9302 515.23 84.9302 512.847C84.9302 510.478 85.3215 508.663 86.1041 507.402C86.8867 506.141 88.0187 505.511 89.5 505.511ZM86.4185 512.847C86.4185 514.537 86.5723 515.86 86.8797 516.816L91.5334 507.61C91.0442 506.958 90.3664 506.633 89.5 506.633C88.5357 506.633 87.7811 507.145 87.2361 508.171C86.691 509.182 86.4185 510.741 86.4185 512.847ZM89.5 519.061C90.4782 519.061 91.2399 518.555 91.7849 517.543C92.3299 516.518 92.6024 514.953 92.6024 512.847C92.6024 511.059 92.4277 509.674 92.0784 508.69L87.4247 517.98C87.9278 518.7 88.6196 519.061 89.5 519.061Z" fill="url(#paint41_linear_122_130)" fill-opacity="0.6"/>
<path d="M128.43 291.751C129.926 291.751 131.057 292.381 131.826 293.642C132.609 294.889 133 296.704 133 299.087C133 301.47 132.609 303.292 131.826 304.553C131.057 305.814 129.926 306.444 128.43 306.444C126.949 306.444 125.817 305.814 125.034 304.553C124.252 303.292 123.86 301.47 123.86 299.087C123.86 296.718 124.252 294.903 125.034 293.642C125.817 292.381 126.949 291.751 128.43 291.751ZM125.349 299.087C125.349 300.777 125.502 302.101 125.81 303.057L130.464 293.85C129.974 293.199 129.297 292.873 128.43 292.873C127.466 292.873 126.711 293.386 126.166 294.411C125.621 295.423 125.349 296.981 125.349 299.087ZM128.43 305.301C129.408 305.301 130.17 304.795 130.715 303.784C131.26 302.759 131.533 301.193 131.533 299.087C131.533 297.3 131.358 295.914 131.009 294.931L126.355 304.22C126.858 304.941 127.55 305.301 128.43 305.301Z" fill="url(#paint42_linear_122_130)" fill-opacity="0.6"/>
<path d="M129.688 328.886H132.769V329.987H124.783V328.886H128.346V317.206L124.95 319.222L124.363 318.287L128.556 315.71H129.688V328.886Z" fill="url(#paint43_linear_122_130)" fill-opacity="0.6"/>
<path d="M129.688 352.637H132.769V353.738H124.783V352.637H128.346V340.957L124.95 342.973L124.363 342.038L128.556 339.461H129.688V352.637Z" fill="url(#paint44_linear_122_130)" fill-opacity="0.6"/>
<path d="M128.43 363.004C129.926 363.004 131.057 363.635 131.826 364.895C132.609 366.142 133 367.957 133 370.34C133 372.723 132.609 374.545 131.826 375.806C131.057 377.067 129.926 377.697 128.43 377.697C126.949 377.697 125.817 377.067 125.034 375.806C124.252 374.545 123.86 372.723 123.86 370.34C123.86 367.971 124.252 366.156 125.034 364.895C125.817 363.635 126.949 363.004 128.43 363.004ZM125.349 370.34C125.349 372.031 125.502 373.354 125.81 374.31L130.464 365.103C129.974 364.452 129.297 364.126 128.43 364.126C127.466 364.126 126.711 364.639 126.166 365.664C125.621 366.676 125.349 368.234 125.349 370.34ZM128.43 376.554C129.408 376.554 130.17 376.049 130.715 375.037C131.26 374.012 131.533 372.446 131.533 370.34C131.533 368.553 131.358 367.168 131.009 366.184L126.355 375.474C126.858 376.194 127.55 376.554 128.43 376.554Z" fill="url(#paint45_linear_122_130)" fill-opacity="0.6"/>
<path d="M128.43 386.755C129.926 386.755 131.057 387.386 131.826 388.646C132.609 389.893 133 391.708 133 394.091C133 396.474 132.609 398.296 131.826 399.557C131.057 400.818 129.926 401.448 128.43 401.448C126.949 401.448 125.817 400.818 125.034 399.557C124.252 398.296 123.86 396.474 123.86 394.091C123.86 391.722 124.252 389.907 125.034 388.646C125.817 387.386 126.949 386.755 128.43 386.755ZM125.349 394.091C125.349 395.782 125.502 397.105 125.81 398.061L130.464 388.854C129.974 388.203 129.297 387.878 128.43 387.878C127.466 387.878 126.711 388.39 126.166 389.415C125.621 390.427 125.349 391.985 125.349 394.091ZM128.43 400.305C129.408 400.305 130.17 399.8 130.715 398.788C131.26 397.763 131.533 396.197 131.533 394.091C131.533 392.304 131.358 390.919 131.009 389.935L126.355 399.225C126.858 399.945 127.55 400.305 128.43 400.305Z" fill="url(#paint46_linear_122_130)" fill-opacity="0.6"/>
<g opacity="0.6">
<path d="M956.93 -32C958.356 -32 959.436 -31.395 960.17 -30.1851C960.916 -28.9885 961.29 -27.2468 961.29 -24.9599C961.29 -22.673 960.916 -20.9246 960.17 -19.7147C959.436 -18.5048 958.356 -17.8998 956.93 -17.8998C955.517 -17.8998 954.437 -18.5048 953.69 -19.7147C952.943 -20.9246 952.57 -22.673 952.57 -24.9599C952.57 -27.2335 952.943 -28.9752 953.69 -30.1851C954.437 -31.395 955.517 -32 956.93 -32ZM953.99 -24.9599C953.99 -23.3378 954.137 -22.068 954.43 -21.1506L958.87 -29.9857C958.403 -30.6106 957.756 -30.923 956.93 -30.923C956.01 -30.923 955.29 -30.4311 954.77 -29.4472C954.25 -28.4766 953.99 -26.9808 953.99 -24.9599ZM956.93 -18.9967C957.863 -18.9967 958.59 -19.482 959.11 -20.4526C959.63 -21.4365 959.89 -22.9389 959.89 -24.9599C959.89 -26.675 959.723 -28.0046 959.39 -28.9486L954.95 -20.0338C955.43 -19.3424 956.09 -18.9967 956.93 -18.9967Z" fill="url(#paint47_linear_122_130)"/>
<path d="M958.13 3.63655H961.07V4.69356H953.45V3.63655H956.85V-7.57181L953.61 -5.63727L953.05 -6.53474L957.05 -9.00776H958.13V3.63655Z" fill="url(#paint48_linear_122_130)"/>
<path d="M956.93 13.5856C958.356 13.5856 959.436 14.1906 960.17 15.4005C960.916 16.5971 961.29 18.3389 961.29 20.6257C961.29 22.9126 960.916 24.661 960.17 25.8709C959.436 27.0808 958.356 27.6858 956.93 27.6858C955.517 27.6858 954.437 27.0808 953.69 25.8709C952.943 24.661 952.57 22.9126 952.57 20.6257C952.57 18.3522 952.943 16.6104 953.69 15.4005C954.437 14.1906 955.517 13.5856 956.93 13.5856ZM953.99 20.6257C953.99 22.2478 954.137 23.5176 954.43 24.435L958.87 15.5999C958.403 14.975 957.756 14.6626 956.93 14.6626C956.01 14.6626 955.29 15.1545 954.77 16.1384C954.25 17.109 953.99 18.6048 953.99 20.6257ZM956.93 26.5889C957.863 26.5889 958.59 26.1036 959.11 25.133C959.63 24.1491 959.89 22.6467 959.89 20.6257C959.89 18.9106 959.723 17.581 959.39 16.637L954.95 25.5518C955.43 26.2432 956.09 26.5889 956.93 26.5889Z" fill="url(#paint49_linear_122_130)"/>
<path d="M958.13 49.2221H961.07V50.2792H953.45V49.2221H956.85V38.0138L953.61 39.9483L953.05 39.0509L957.05 36.5778H958.13V49.2221Z" fill="url(#paint50_linear_122_130)"/>
<path d="M958.13 72.015H961.07V73.072H953.45V72.015H956.85V60.8066L953.61 62.7411L953.05 61.8437L957.05 59.3706H958.13V72.015Z" fill="url(#paint51_linear_122_130)"/>
<path d="M956.93 81.964C958.356 81.964 959.436 82.569 960.17 83.7789C960.916 84.9755 961.29 86.7173 961.29 89.0041C961.29 91.291 960.916 93.0394 960.17 94.2493C959.436 95.4593 958.356 96.0642 956.93 96.0642C955.517 96.0642 954.437 95.4593 953.69 94.2493C952.943 93.0394 952.57 91.291 952.57 89.0041C952.57 86.7306 952.943 84.9888 953.69 83.7789C954.437 82.569 955.517 81.964 956.93 81.964ZM953.99 89.0041C953.99 90.6262 954.137 91.896 954.43 92.8134L958.87 83.9783C958.403 83.3534 957.756 83.041 956.93 83.041C956.01 83.041 955.29 83.5329 954.77 84.5168C954.25 85.4874 953.99 86.9832 953.99 89.0041ZM956.93 94.9673C957.863 94.9673 958.59 94.482 959.11 93.5114C959.63 92.5275 959.89 91.0251 959.89 89.0041C959.89 87.289 959.723 85.9594 959.39 85.0154L954.95 93.9302C955.43 94.6216 956.09 94.9673 956.93 94.9673Z" fill="url(#paint52_linear_122_130)"/>
<path d="M958.13 117.601H961.07V118.658H953.45V117.601H956.85V106.392L953.61 108.327L953.05 107.429L957.05 104.956H958.13V117.601Z" fill="url(#paint53_linear_122_130)"/>
<path d="M956.93 127.55C958.356 127.55 959.436 128.155 960.17 129.365C960.916 130.561 961.29 132.303 961.29 134.59C961.29 136.877 960.916 138.625 960.17 139.835C959.436 141.045 958.356 141.65 956.93 141.65C955.517 141.65 954.437 141.045 953.69 139.835C952.943 138.625 952.57 136.877 952.57 134.59C952.57 132.316 952.943 130.574 953.69 129.365C954.437 128.155 955.517 127.55 956.93 127.55ZM953.99 134.59C953.99 136.212 954.137 137.482 954.43 138.399L958.87 129.564C958.403 128.939 957.756 128.627 956.93 128.627C956.01 128.627 955.29 129.119 954.77 130.102C954.25 131.073 953.99 132.569 953.99 134.59ZM956.93 140.553C957.863 140.553 958.59 140.068 959.11 139.097C959.63 138.113 959.89 136.611 959.89 134.59C959.89 132.875 959.723 131.545 959.39 130.601L954.95 139.516C955.43 140.207 956.09 140.553 956.93 140.553Z" fill="url(#paint54_linear_122_130)"/>
<path d="M956.93 150.342C958.356 150.342 959.436 150.947 960.17 152.157C960.916 153.354 961.29 155.096 961.29 157.383C961.29 159.669 960.916 161.418 960.17 162.628C959.436 163.838 958.356 164.443 956.93 164.443C955.517 164.443 954.437 163.838 953.69 162.628C952.943 161.418 952.57 159.669 952.57 157.383C952.57 155.109 952.943 153.367 953.69 152.157C954.437 150.947 955.517 150.342 956.93 150.342ZM953.99 157.383C953.99 159.005 954.137 160.274 954.43 161.192L958.87 152.357C958.403 151.732 957.756 151.419 956.93 151.419C956.01 151.419 955.29 151.911 954.77 152.895C954.25 153.866 953.99 155.362 953.99 157.383ZM956.93 163.346C957.863 163.346 958.59 162.86 959.11 161.89C959.63 160.906 959.89 159.404 959.89 157.383C959.89 155.667 959.723 154.338 959.39 153.394L954.95 162.309C955.43 163 956.09 163.346 956.93 163.346Z" fill="url(#paint55_linear_122_130)"/>
<path d="M958.13 185.979H961.07V187.036H953.45V185.979H956.85V174.771L953.61 176.705L953.05 175.808L957.05 173.335H958.13V185.979Z" fill="url(#paint56_linear_122_130)"/>
<path d="M956.93 195.928C958.356 195.928 959.436 196.533 960.17 197.743C960.916 198.94 961.29 200.681 961.29 202.968C961.29 205.255 960.916 207.003 960.17 208.213C959.436 209.423 958.356 210.028 956.93 210.028C955.517 210.028 954.437 209.423 953.69 208.213C952.943 207.003 952.57 205.255 952.57 202.968C952.57 200.695 952.943 198.953 953.69 197.743C954.437 196.533 955.517 195.928 956.93 195.928ZM953.99 202.968C953.99 204.59 954.137 205.86 954.43 206.777L958.87 197.942C958.403 197.317 957.756 197.005 956.93 197.005C956.01 197.005 955.29 197.497 954.77 198.481C954.25 199.451 953.99 200.947 953.99 202.968ZM956.93 208.931C957.863 208.931 958.59 208.446 959.11 207.475C959.63 206.492 959.89 204.989 959.89 202.968C959.89 201.253 959.723 199.923 959.39 198.979L954.95 207.894C955.43 208.586 956.09 208.931 956.93 208.931Z" fill="url(#paint57_linear_122_130)"/>
<path d="M958.13 231.565H961.07V232.622H953.45V231.565H956.85V220.356L953.61 222.291L953.05 221.393L957.05 218.92H958.13V231.565Z" fill="url(#paint58_linear_122_130)"/>
<path d="M958.13 254.357H961.07V255.414H953.45V254.357H956.85V243.149L953.61 245.084L953.05 244.186L957.05 241.713H958.13V254.357Z" fill="url(#paint59_linear_122_130)"/>
<path d="M994.07 13.5856C995.497 13.5856 996.577 14.1906 997.31 15.4005C998.057 16.5971 998.43 18.3389 998.43 20.6257C998.43 22.9126 998.057 24.661 997.31 25.8709C996.577 27.0808 995.497 27.6858 994.07 27.6858C992.657 27.6858 991.577 27.0808 990.83 25.8709C990.084 24.661 989.71 22.9126 989.71 20.6257C989.71 18.3522 990.084 16.6104 990.83 15.4005C991.577 14.1906 992.657 13.5856 994.07 13.5856ZM991.13 20.6257C991.13 22.2478 991.277 23.5176 991.57 24.435L996.01 15.5999C995.543 14.975 994.897 14.6626 994.07 14.6626C993.15 14.6626 992.43 15.1545 991.91 16.1384C991.39 17.109 991.13 18.6048 991.13 20.6257ZM994.07 26.5889C995.003 26.5889 995.73 26.1036 996.25 25.133C996.77 24.1491 997.03 22.6467 997.03 20.6257C997.03 18.9106 996.863 17.581 996.53 16.637L992.09 25.5518C992.57 26.2432 993.23 26.5889 994.07 26.5889Z" fill="url(#paint60_linear_122_130)"/>
<path d="M995.27 49.2221H998.21V50.2792H990.59V49.2221H993.99V38.0138L990.75 39.9483L990.19 39.0509L994.19 36.5778H995.27V49.2221Z" fill="url(#paint61_linear_122_130)"/>
<path d="M994.07 59.1712C995.497 59.1712 996.577 59.7762 997.31 60.9861C998.057 62.1827 998.43 63.9245 998.43 66.2113C998.43 68.4982 998.057 70.2466 997.31 71.4565C996.577 72.6664 995.497 73.2714 994.07 73.2714C992.657 73.2714 991.577 72.6664 990.83 71.4565C990.084 70.2466 989.71 68.4982 989.71 66.2113C989.71 63.9378 990.084 62.196 990.83 60.9861C991.577 59.7762 992.657 59.1712 994.07 59.1712ZM991.13 66.2113C991.13 67.8334 991.277 69.1032 991.57 70.0206L996.01 61.1855C995.543 60.5606 994.897 60.2482 994.07 60.2482C993.15 60.2482 992.43 60.7401 991.91 61.724C991.39 62.6946 991.13 64.1904 991.13 66.2113ZM994.07 72.1745C995.003 72.1745 995.73 71.6892 996.25 70.7186C996.77 69.7347 997.03 68.2323 997.03 66.2113C997.03 64.4962 996.863 63.1666 996.53 62.2226L992.09 71.1374C992.57 71.8288 993.23 72.1745 994.07 72.1745Z" fill="url(#paint62_linear_122_130)"/>
<path d="M994.07 81.964C995.497 81.964 996.577 82.569 997.31 83.7789C998.057 84.9755 998.43 86.7173 998.43 89.0041C998.43 91.291 998.057 93.0394 997.31 94.2493C996.577 95.4593 995.497 96.0642 994.07 96.0642C992.657 96.0642 991.577 95.4593 990.83 94.2493C990.084 93.0394 989.71 91.291 989.71 89.0041C989.71 86.7306 990.084 84.9888 990.83 83.7789C991.577 82.569 992.657 81.964 994.07 81.964ZM991.13 89.0041C991.13 90.6262 991.277 91.896 991.57 92.8134L996.01 83.9783C995.543 83.3534 994.897 83.041 994.07 83.041C993.15 83.041 992.43 83.5329 991.91 84.5168C991.39 85.4874 991.13 86.9832 991.13 89.0041ZM994.07 94.9673C995.003 94.9673 995.73 94.482 996.25 93.5114C996.77 92.5275 997.03 91.0251 997.03 89.0041C997.03 87.289 996.863 85.9594 996.53 85.0154L992.09 93.9302C992.57 94.6216 993.23 94.9673 994.07 94.9673Z" fill="url(#paint63_linear_122_130)"/>
<path d="M995.27 117.601H998.21V118.658H990.59V117.601H993.99V106.392L990.75 108.327L990.19 107.429L994.19 104.956H995.27V117.601Z" fill="url(#paint64_linear_122_130)"/>
<path d="M994.07 127.55C995.497 127.55 996.577 128.155 997.31 129.365C998.057 130.561 998.43 132.303 998.43 134.59C998.43 136.877 998.057 138.625 997.31 139.835C996.577 141.045 995.497 141.65 994.07 141.65C992.657 141.65 991.577 141.045 990.83 139.835C990.084 138.625 989.71 136.877 989.71 134.59C989.71 132.316 990.084 130.574 990.83 129.365C991.577 128.155 992.657 127.55 994.07 127.55ZM991.13 134.59C991.13 136.212 991.277 137.482 991.57 138.399L996.01 129.564C995.543 128.939 994.897 128.627 994.07 128.627C993.15 128.627 992.43 129.119 991.91 130.102C991.39 131.073 991.13 132.569 991.13 134.59ZM994.07 140.553C995.003 140.553 995.73 140.068 996.25 139.097C996.77 138.113 997.03 136.611 997.03 134.59C997.03 132.875 996.863 131.545 996.53 130.601L992.09 139.516C992.57 140.207 993.23 140.553 994.07 140.553Z" fill="url(#paint65_linear_122_130)"/>
<path d="M995.27 163.186H998.21V164.243H990.59V163.186H993.99V151.978L990.75 153.912L990.19 153.015L994.19 150.542H995.27V163.186Z" fill="url(#paint66_linear_122_130)"/>
<path d="M994.07 173.135C995.497 173.135 996.577 173.74 997.31 174.95C998.057 176.147 998.43 177.888 998.43 180.175C998.43 182.462 998.057 184.211 997.31 185.421C996.577 186.63 995.497 187.235 994.07 187.235C992.657 187.235 991.577 186.63 990.83 185.421C990.084 184.211 989.71 182.462 989.71 180.175C989.71 177.902 990.084 176.16 990.83 174.95C991.577 173.74 992.657 173.135 994.07 173.135ZM991.13 180.175C991.13 181.797 991.277 183.067 991.57 183.985L996.01 175.15C995.543 174.525 994.897 174.212 994.07 174.212C993.15 174.212 992.43 174.704 991.91 175.688C991.39 176.659 991.13 178.154 991.13 180.175ZM994.07 186.139C995.003 186.139 995.73 185.653 996.25 184.683C996.77 183.699 997.03 182.196 997.03 180.175C997.03 178.46 996.863 177.131 996.53 176.187L992.09 185.101C992.57 185.793 993.23 186.139 994.07 186.139Z" fill="url(#paint67_linear_122_130)"/>
<path d="M994.07 195.928C995.497 195.928 996.577 196.533 997.31 197.743C998.057 198.94 998.43 200.681 998.43 202.968C998.43 205.255 998.057 207.003 997.31 208.213C996.577 209.423 995.497 210.028 994.07 210.028C992.657 210.028 991.577 209.423 990.83 208.213C990.084 207.003 989.71 205.255 989.71 202.968C989.71 200.695 990.084 198.953 990.83 197.743C991.577 196.533 992.657 195.928 994.07 195.928ZM991.13 202.968C991.13 204.59 991.277 205.86 991.57 206.777L996.01 197.942C995.543 197.317 994.897 197.005 994.07 197.005C993.15 197.005 992.43 197.497 991.91 198.481C991.39 199.451 991.13 200.947 991.13 202.968ZM994.07 208.931C995.003 208.931 995.73 208.446 996.25 207.475C996.77 206.492 997.03 204.989 997.03 202.968C997.03 201.253 996.863 199.923 996.53 198.979L992.09 207.894C992.57 208.586 993.23 208.931 994.07 208.931Z" fill="url(#paint68_linear_122_130)"/>
<path d="M995.27 231.565H998.21V232.622H990.59V231.565H993.99V220.356L990.75 222.291L990.19 221.393L994.19 218.92H995.27V231.565Z" fill="url(#paint69_linear_122_130)"/>
<path d="M994.07 241.514C995.497 241.514 996.577 242.119 997.31 243.329C998.057 244.525 998.43 246.267 998.43 248.554C998.43 250.841 998.057 252.589 997.31 253.799C996.577 255.009 995.497 255.614 994.07 255.614C992.657 255.614 991.577 255.009 990.83 253.799C990.084 252.589 989.71 250.841 989.71 248.554C989.71 246.28 990.084 244.538 990.83 243.329C991.577 242.119 992.657 241.514 994.07 241.514ZM991.13 248.554C991.13 250.176 991.277 251.446 991.57 252.363L996.01 243.528C995.543 242.903 994.897 242.591 994.07 242.591C993.15 242.591 992.43 243.083 991.91 244.066C991.39 245.037 991.13 246.533 991.13 248.554ZM994.07 254.517C995.003 254.517 995.73 254.032 996.25 253.061C996.77 252.077 997.03 250.575 997.03 248.554C997.03 246.839 996.863 245.509 996.53 244.565L992.09 253.48C992.57 254.171 993.23 254.517 994.07 254.517Z" fill="url(#paint70_linear_122_130)"/>
<path d="M995.27 277.15H998.21V278.207H990.59V277.15H993.99V265.942L990.75 267.876L990.19 266.979L994.19 264.506H995.27V277.15Z" fill="url(#paint71_linear_122_130)"/>
<path d="M995.27 299.943H998.21V301H990.59V299.943H993.99V288.735L990.75 290.669L990.19 289.772L994.19 287.299H995.27V299.943Z" fill="url(#paint72_linear_122_130)"/>
<path d="M938.36 36.3784C939.786 36.3784 940.866 36.9834 941.599 38.1933C942.346 39.3899 942.719 41.1317 942.719 43.4185C942.719 45.7054 942.346 47.4538 941.599 48.6637C940.866 49.8736 939.786 50.4786 938.36 50.4786C936.946 50.4786 935.867 49.8736 935.12 48.6637C934.373 47.4538 934 45.7054 934 43.4185C934 41.145 934.373 39.4032 935.12 38.1933C935.867 36.9834 936.946 36.3784 938.36 36.3784ZM935.42 43.4185C935.42 45.0406 935.567 46.3104 935.86 47.2278L940.3 38.3927C939.833 37.7678 939.186 37.4554 938.36 37.4554C937.44 37.4554 936.72 37.9473 936.2 38.9312C935.68 39.9018 935.42 41.3976 935.42 43.4185ZM938.36 49.3817C939.293 49.3817 940.02 48.8964 940.54 47.9258C941.06 46.9419 941.319 45.4395 941.319 43.4185C941.319 41.7034 941.153 40.3738 940.82 39.4298L936.38 48.3446C936.86 49.036 937.52 49.3817 938.36 49.3817Z" fill="url(#paint73_linear_122_130)"/>
<path d="M938.36 59.1712C939.786 59.1712 940.866 59.7762 941.599 60.9861C942.346 62.1827 942.719 63.9245 942.719 66.2113C942.719 68.4982 942.346 70.2466 941.599 71.4565C940.866 72.6664 939.786 73.2714 938.36 73.2714C936.946 73.2714 935.867 72.6664 935.12 71.4565C934.373 70.2466 934 68.4982 934 66.2113C934 63.9378 934.373 62.196 935.12 60.9861C935.867 59.7762 936.946 59.1712 938.36 59.1712ZM935.42 66.2113C935.42 67.8334 935.567 69.1032 935.86 70.0206L940.3 61.1855C939.833 60.5606 939.186 60.2482 938.36 60.2482C937.44 60.2482 936.72 60.7401 936.2 61.724C935.68 62.6946 935.42 64.1904 935.42 66.2113ZM938.36 72.1745C939.293 72.1745 940.02 71.6892 940.54 70.7186C941.06 69.7347 941.319 68.2323 941.319 66.2113C941.319 64.4962 941.153 63.1666 940.82 62.2226L936.38 71.1374C936.86 71.8288 937.52 72.1745 938.36 72.1745Z" fill="url(#paint74_linear_122_130)"/>
<path d="M939.56 94.8078H942.499V95.8648H934.88V94.8078H938.28V83.5994L935.04 85.5339L934.48 84.6365L938.48 82.1635H939.56V94.8078Z" fill="url(#paint75_linear_122_130)"/>
<path d="M938.36 104.757C939.786 104.757 940.866 105.362 941.599 106.572C942.346 107.768 942.719 109.51 942.719 111.797C942.719 114.084 942.346 115.832 941.599 117.042C940.866 118.252 939.786 118.857 938.36 118.857C936.946 118.857 935.867 118.252 935.12 117.042C934.373 115.832 934 114.084 934 111.797C934 109.523 934.373 107.782 935.12 106.572C935.867 105.362 936.946 104.757 938.36 104.757ZM935.42 111.797C935.42 113.419 935.567 114.689 935.86 115.606L940.3 106.771C939.833 106.146 939.186 105.834 938.36 105.834C937.44 105.834 936.72 106.326 936.2 107.31C935.68 108.28 935.42 109.776 935.42 111.797ZM938.36 117.76C939.293 117.76 940.02 117.275 940.54 116.304C941.06 115.32 941.319 113.818 941.319 111.797C941.319 110.082 941.153 108.752 940.82 107.808L936.38 116.723C936.86 117.414 937.52 117.76 938.36 117.76Z" fill="url(#paint76_linear_122_130)"/>
<path d="M939.56 140.393H942.499V141.45H934.88V140.393H938.28V129.185L935.04 131.12L934.48 130.222L938.48 127.749H939.56V140.393Z" fill="url(#paint77_linear_122_130)"/>
<path d="M939.56 163.186H942.499V164.243H934.88V163.186H938.28V151.978L935.04 153.912L934.48 153.015L938.48 150.542H939.56V163.186Z" fill="url(#paint78_linear_122_130)"/>
<path d="M976.7 3.63655H979.64V4.69356H972.02V3.63655H975.42V-7.57181L972.18 -5.63727L971.62 -6.53474L975.62 -9.00776H976.7V3.63655Z" fill="url(#paint79_linear_122_130)"/>
<path d="M975.5 13.5856C976.927 13.5856 978.006 14.1906 978.74 15.4005C979.486 16.5971 979.86 18.3389 979.86 20.6257C979.86 22.9126 979.486 24.661 978.74 25.8709C978.006 27.0808 976.927 27.6858 975.5 27.6858C974.087 27.6858 973.007 27.0808 972.26 25.8709C971.514 24.661 971.14 22.9126 971.14 20.6257C971.14 18.3522 971.514 16.6104 972.26 15.4005C973.007 14.1906 974.087 13.5856 975.5 13.5856ZM972.56 20.6257C972.56 22.2478 972.707 23.5176 973 24.435L977.44 15.5999C976.973 14.975 976.327 14.6626 975.5 14.6626C974.58 14.6626 973.86 15.1545 973.34 16.1384C972.82 17.109 972.56 18.6048 972.56 20.6257ZM975.5 26.5889C976.433 26.5889 977.16 26.1036 977.68 25.133C978.2 24.1491 978.46 22.6467 978.46 20.6257C978.46 18.9106 978.293 17.581 977.96 16.637L973.52 25.5518C974 26.2432 974.66 26.5889 975.5 26.5889Z" fill="url(#paint80_linear_122_130)"/>
<path d="M976.7 49.2221H979.64V50.2792H972.02V49.2221H975.42V38.0138L972.18 39.9483L971.62 39.0509L975.62 36.5778H976.7V49.2221Z" fill="url(#paint81_linear_122_130)"/>
<path d="M976.7 72.015H979.64V73.072H972.02V72.015H975.42V60.8066L972.18 62.7411L971.62 61.8437L975.62 59.3706H976.7V72.015Z" fill="url(#paint82_linear_122_130)"/>
<path d="M975.5 81.964C976.927 81.964 978.006 82.569 978.74 83.7789C979.486 84.9755 979.86 86.7173 979.86 89.0041C979.86 91.291 979.486 93.0394 978.74 94.2493C978.006 95.4593 976.927 96.0642 975.5 96.0642C974.087 96.0642 973.007 95.4593 972.26 94.2493C971.514 93.0394 971.14 91.291 971.14 89.0041C971.14 86.7306 971.514 84.9888 972.26 83.7789C973.007 82.569 974.087 81.964 975.5 81.964ZM972.56 89.0041C972.56 90.6262 972.707 91.896 973 92.8134L977.44 83.9783C976.973 83.3534 976.327 83.041 975.5 83.041C974.58 83.041 973.86 83.5329 973.34 84.5168C972.82 85.4874 972.56 86.9832 972.56 89.0041ZM975.5 94.9673C976.433 94.9673 977.16 94.482 977.68 93.5114C978.2 92.5275 978.46 91.0251 978.46 89.0041C978.46 87.289 978.293 85.9594 977.96 85.0154L973.52 93.9302C974 94.6216 974.66 94.9673 975.5 94.9673Z" fill="url(#paint83_linear_122_130)"/>
<path d="M976.7 117.601H979.64V118.658H972.02V117.601H975.42V106.392L972.18 108.327L971.62 107.429L975.62 104.956H976.7V117.601Z" fill="url(#paint84_linear_122_130)"/>
<path d="M976.7 140.393H979.64V141.45H972.02V140.393H975.42V129.185L972.18 131.12L971.62 130.222L975.62 127.749H976.7V140.393Z" fill="url(#paint85_linear_122_130)"/>
<path d="M975.5 150.342C976.927 150.342 978.006 150.947 978.74 152.157C979.486 153.354 979.86 155.096 979.86 157.383C979.86 159.669 979.486 161.418 978.74 162.628C978.006 163.838 976.927 164.443 975.5 164.443C974.087 164.443 973.007 163.838 972.26 162.628C971.514 161.418 971.14 159.669 971.14 157.383C971.14 155.109 971.514 153.367 972.26 152.157C973.007 150.947 974.087 150.342 975.5 150.342ZM972.56 157.383C972.56 159.005 972.707 160.274 973 161.192L977.44 152.357C976.973 151.732 976.327 151.419 975.5 151.419C974.58 151.419 973.86 151.911 973.34 152.895C972.82 153.866 972.56 155.362 972.56 157.383ZM975.5 163.346C976.433 163.346 977.16 162.86 977.68 161.89C978.2 160.906 978.46 159.404 978.46 157.383C978.46 155.667 978.293 154.338 977.96 153.394L973.52 162.309C974 163 974.66 163.346 975.5 163.346Z" fill="url(#paint86_linear_122_130)"/>
<path d="M976.7 185.979H979.64V187.036H972.02V185.979H975.42V174.771L972.18 176.705L971.62 175.808L975.62 173.335H976.7V185.979Z" fill="url(#paint87_linear_122_130)"/>
<path d="M975.5 195.928C976.927 195.928 978.006 196.533 978.74 197.743C979.486 198.94 979.86 200.681 979.86 202.968C979.86 205.255 979.486 207.003 978.74 208.213C978.006 209.423 976.927 210.028 975.5 210.028C974.087 210.028 973.007 209.423 972.26 208.213C971.514 207.003 971.14 205.255 971.14 202.968C971.14 200.695 971.514 198.953 972.26 197.743C973.007 196.533 974.087 195.928 975.5 195.928ZM972.56 202.968C972.56 204.59 972.707 205.86 973 206.777L977.44 197.942C976.973 197.317 976.327 197.005 975.5 197.005C974.58 197.005 973.86 197.497 973.34 198.481C972.82 199.451 972.56 200.947 972.56 202.968ZM975.5 208.931C976.433 208.931 977.16 208.446 977.68 207.475C978.2 206.492 978.46 204.989 978.46 202.968C978.46 201.253 978.293 199.923 977.96 198.979L973.52 207.894C974 208.586 974.66 208.931 975.5 208.931Z" fill="url(#paint88_linear_122_130)"/>
<path d="M1012.64 -9.2072C1014.07 -9.2072 1015.15 -8.60224 1015.88 -7.39232C1016.63 -6.1957 1017 -4.45395 1017 -2.16707C1017 0.119806 1016.63 1.86821 1015.88 3.07812C1015.15 4.28804 1014.07 4.893 1012.64 4.893C1011.23 4.893 1010.15 4.28804 1009.4 3.07812C1008.65 1.86821 1008.28 0.119806 1008.28 -2.16707C1008.28 -4.44065 1008.65 -6.1824 1009.4 -7.39232C1010.15 -8.60224 1011.23 -9.2072 1012.64 -9.2072ZM1009.7 -2.16707C1009.7 -0.544984 1009.85 0.724769 1010.14 1.64218L1014.58 -7.19288C1014.11 -7.81779 1013.47 -8.13024 1012.64 -8.13024C1011.72 -8.13024 1011 -7.63829 1010.48 -6.6544C1009.96 -5.68381 1009.7 -4.18803 1009.7 -2.16707ZM1012.64 3.7961C1013.57 3.7961 1014.3 3.3108 1014.82 2.34021C1015.34 1.35632 1015.6 -0.14611 1015.6 -2.16707C1015.6 -3.88223 1015.43 -5.21181 1015.1 -6.15581L1010.66 2.75902C1011.14 3.4504 1011.8 3.7961 1012.64 3.7961Z" fill="url(#paint89_linear_122_130)"/>
<path d="M1013.84 26.4293H1016.78V27.4864H1009.16V26.4293H1012.56V15.221L1009.32 17.1555L1008.76 16.2581L1012.76 13.785H1013.84V26.4293Z" fill="url(#paint90_linear_122_130)"/>
<path d="M1013.84 49.2221H1016.78V50.2792H1009.16V49.2221H1012.56V38.0138L1009.32 39.9483L1008.76 39.0509L1012.76 36.5778H1013.84V49.2221Z" fill="url(#paint91_linear_122_130)"/>
<path d="M1012.64 59.1712C1014.07 59.1712 1015.15 59.7762 1015.88 60.9861C1016.63 62.1827 1017 63.9245 1017 66.2113C1017 68.4982 1016.63 70.2466 1015.88 71.4565C1015.15 72.6664 1014.07 73.2714 1012.64 73.2714C1011.23 73.2714 1010.15 72.6664 1009.4 71.4565C1008.65 70.2466 1008.28 68.4982 1008.28 66.2113C1008.28 63.9378 1008.65 62.196 1009.4 60.9861C1010.15 59.7762 1011.23 59.1712 1012.64 59.1712ZM1009.7 66.2113C1009.7 67.8334 1009.85 69.1032 1010.14 70.0206L1014.58 61.1855C1014.11 60.5606 1013.47 60.2482 1012.64 60.2482C1011.72 60.2482 1011 60.7401 1010.48 61.724C1009.96 62.6946 1009.7 64.1904 1009.7 66.2113ZM1012.64 72.1745C1013.57 72.1745 1014.3 71.6892 1014.82 70.7186C1015.34 69.7347 1015.6 68.2323 1015.6 66.2113C1015.6 64.4962 1015.43 63.1666 1015.1 62.2226L1010.66 71.1374C1011.14 71.8288 1011.8 72.1745 1012.64 72.1745Z" fill="url(#paint92_linear_122_130)"/>
<path d="M1012.64 81.964C1014.07 81.964 1015.15 82.569 1015.88 83.7789C1016.63 84.9755 1017 86.7173 1017 89.0041C1017 91.291 1016.63 93.0394 1015.88 94.2493C1015.15 95.4593 1014.07 96.0642 1012.64 96.0642C1011.23 96.0642 1010.15 95.4593 1009.4 94.2493C1008.65 93.0394 1008.28 91.291 1008.28 89.0041C1008.28 86.7306 1008.65 84.9888 1009.4 83.7789C1010.15 82.569 1011.23 81.964 1012.64 81.964ZM1009.7 89.0041C1009.7 90.6262 1009.85 91.896 1010.14 92.8134L1014.58 83.9783C1014.11 83.3534 1013.47 83.041 1012.64 83.041C1011.72 83.041 1011 83.5329 1010.48 84.5168C1009.96 85.4874 1009.7 86.9832 1009.7 89.0041ZM1012.64 94.9673C1013.57 94.9673 1014.3 94.482 1014.82 93.5114C1015.34 92.5275 1015.6 91.0251 1015.6 89.0041C1015.6 87.289 1015.43 85.9594 1015.1 85.0154L1010.66 93.9302C1011.14 94.6216 1011.8 94.9673 1012.64 94.9673Z" fill="url(#paint93_linear_122_130)"/>
</g>
<path fill-rule="evenodd" clip-rule="evenodd" d="M469.513 61.2816V59.2032L463.767 61.3387H463.756V63.4716H463.767L469.513 65.6072V63.526L466.566 62.3997L469.513 61.2789V61.2816Z" fill="#F7DD43"/>
<path fill-rule="evenodd" clip-rule="evenodd" d="M502.792 65.5037V63.4253L505.736 62.3072L502.792 61.189V59.1106L508.53 61.2462H508.543V63.3817H508.53L502.792 65.5064V65.5037ZM500.327 56.1698L496.954 67H498.956L502.33 56.1698H500.327Z" fill="#F7DD43"/>
<path fill-rule="evenodd" clip-rule="evenodd" d="M477.954 58.9175C478.526 59.5432 478.825 60.3702 478.789 61.2163V65.8302H476.787V61.6407C476.812 61.1727 476.662 60.7157 476.368 60.3512C476.091 60.0274 475.68 59.8479 475.253 59.8669C473.999 59.8669 473.37 60.7375 473.37 62.4758V65.8302H471.368V58.2564H473.37V58.9392C474.007 58.3217 474.869 57.9925 475.756 58.0306C476.583 57.9952 477.383 58.319 477.954 58.9175V58.9175Z" fill="#F7DD43"/>
<path fill-rule="evenodd" clip-rule="evenodd" d="M481.341 55V65.8302H483.344V55H481.341Z" fill="#F7DD43"/>
<path fill-rule="evenodd" clip-rule="evenodd" d="M494.666 65.8302H492.996L491.358 61.3686L489.704 65.8302H488.034L485.226 58.2428H487.367L488.945 62.7806L490.572 58.2428H492.136L493.763 62.7942L495.341 58.2428H497.482L494.672 65.8302H494.666Z" fill="#F7DD43"/>
<path d="M518.08 69.9981C516.153 69.9981 514.129 69.6331 512.543 68.754V53.2441C514.105 52.3899 516.128 52 518.08 52C520.031 52 522.007 52.365 523.566 53.2441V59.195H519.639V55.1456C519.177 54.9507 518.615 54.878 518.055 54.878C517.495 54.878 516.981 54.9507 516.493 55.1456V66.8525C516.956 67.0475 517.493 67.1201 518.055 67.1201C518.617 67.1201 519.152 67.0475 519.639 66.8525V62.805H523.566V68.7559C522.03 69.6102 520.006 69.9752 518.08 70V69.9981Z" fill="#F7DD43"/>
<path d="M530.931 69.9981C528.858 69.9981 526.859 69.5585 525.273 68.6565V53.3167C526.834 52.4395 528.835 52 530.931 52C533.028 52 534.979 52.4147 536.54 53.3167V68.6565C535.004 69.5585 532.98 69.9732 530.931 69.9981ZM532.615 55.1952C532.152 55.0003 531.591 54.9029 530.908 54.9029C530.226 54.9029 529.689 55.0003 529.225 55.1952V66.7799C529.687 66.9997 530.249 67.0971 530.908 67.0971C531.568 67.0971 532.128 66.9997 532.615 66.7799V55.1952Z" fill="#F7DD43"/>
<path d="M543.393 63.4127H542.344V69.7783H538.369V52.2198H543.393C545.784 52.2198 547.588 52.7071 549.002 53.7066V61.9259C547.613 62.9024 545.782 63.4127 543.393 63.4127ZM545.052 55.243C544.687 54.9755 544.198 54.8532 543.368 54.8532H542.294V60.7793H543.368C544.173 60.7793 544.66 60.657 545.052 60.4143V55.243Z" fill="#F7DD43"/>
<path d="M557.317 69.7783V63.4127H554.391V69.7783H550.441V53.2919C551.88 52.4376 553.904 52 555.855 52C557.806 52 559.805 52.4395 561.244 53.2919V69.7783H557.317ZM557.317 55.0481C556.902 54.8532 556.39 54.7557 555.853 54.7557C555.316 54.7557 554.804 54.8532 554.389 55.0481V60.6321H557.315V55.0481H557.317Z" fill="#F7DD43"/>
<path d="M435.713 99.9248H440.093C440.005 101.36 439.609 102.635 438.906 103.748C438.213 104.861 437.241 105.73 435.991 106.355C434.751 106.98 433.257 107.293 431.509 107.293C430.142 107.293 428.916 107.059 427.832 106.59C426.748 106.111 425.82 105.428 425.049 104.539C424.287 103.65 423.706 102.576 423.306 101.316C422.905 100.057 422.705 98.6455 422.705 97.083V95.6035C422.705 94.041 422.91 92.6299 423.32 91.3701C423.74 90.1006 424.336 89.0215 425.107 88.1328C425.889 87.2441 426.821 86.5605 427.905 86.082C428.989 85.6035 430.2 85.3643 431.538 85.3643C433.315 85.3643 434.814 85.6865 436.035 86.3311C437.266 86.9756 438.218 87.8643 438.892 88.9971C439.575 90.1299 439.985 91.4189 440.122 92.8643H435.728C435.679 92.0049 435.508 91.2773 435.215 90.6816C434.922 90.0762 434.478 89.6221 433.882 89.3193C433.296 89.0068 432.515 88.8506 431.538 88.8506C430.806 88.8506 430.166 88.9873 429.619 89.2607C429.072 89.5342 428.613 89.9492 428.242 90.5059C427.871 91.0625 427.593 91.7656 427.407 92.6152C427.231 93.4551 427.144 94.4414 427.144 95.5742V97.083C427.144 98.1865 427.227 99.1582 427.393 99.998C427.559 100.828 427.812 101.531 428.154 102.107C428.506 102.674 428.955 103.104 429.502 103.396C430.059 103.68 430.728 103.821 431.509 103.821C432.427 103.821 433.184 103.675 433.779 103.382C434.375 103.089 434.829 102.654 435.142 102.078C435.464 101.502 435.654 100.784 435.713 99.9248ZM451.65 89.3193L445.85 107H441.177L449.102 85.6719H452.075L451.65 89.3193ZM456.47 107L450.654 89.3193L450.186 85.6719H453.188L461.157 107H456.47ZM456.206 99.0605V102.503H444.941V99.0605H456.206ZM476.846 103.572V107H466.108V103.572H476.846ZM467.529 85.6719V107H463.135V85.6719H467.529ZM493.677 103.572V107H482.324V103.572H493.677ZM483.76 85.6719V107H479.365V85.6719H483.76ZM492.197 94.3584V97.6982H482.324V94.3584H492.197ZM493.662 85.6719V89.1143H482.324V85.6719H493.662ZM513.599 85.6719V107H509.204L500.635 92.7031V107H496.24V85.6719H500.635L509.219 99.9834V85.6719H513.599ZM523.97 107H519.326L519.355 103.572H523.97C525.122 103.572 526.094 103.313 526.885 102.796C527.676 102.269 528.271 101.502 528.672 100.496C529.082 99.4902 529.287 98.2744 529.287 96.8486V95.8086C529.287 94.7148 529.17 93.7529 528.936 92.9229C528.711 92.0928 528.374 91.3945 527.925 90.8281C527.476 90.2617 526.924 89.8369 526.27 89.5537C525.615 89.2607 524.863 89.1143 524.014 89.1143H519.238V85.6719H524.014C525.439 85.6719 526.743 85.916 527.925 86.4043C529.116 86.8828 530.146 87.5713 531.016 88.4697C531.885 89.3682 532.554 90.4424 533.022 91.6924C533.501 92.9326 533.74 94.3145 533.74 95.8379V96.8486C533.74 98.3623 533.501 99.7441 533.022 100.994C532.554 102.244 531.885 103.318 531.016 104.217C530.156 105.105 529.126 105.794 527.925 106.282C526.733 106.761 525.415 107 523.97 107ZM521.816 85.6719V107H517.422V85.6719H521.816ZM545.283 89.3193L539.482 107H534.81L542.734 85.6719H545.708L545.283 89.3193ZM550.103 107L544.287 89.3193L543.818 85.6719H546.821L554.79 107H550.103ZM549.839 99.0605V102.503H538.574V99.0605H549.839ZM542.808 84.4707L545.679 79.959H550.264L546.235 84.4707H542.808ZM556.768 85.6719H564.722C566.353 85.6719 567.754 85.916 568.926 86.4043C570.107 86.8926 571.016 87.6152 571.65 88.5723C572.285 89.5293 572.603 90.7061 572.603 92.1025C572.603 93.2451 572.407 94.2266 572.017 95.0469C571.636 95.8574 571.094 96.5361 570.391 97.083C569.697 97.6201 568.882 98.0498 567.944 98.3721L566.553 99.1045H559.639L559.609 95.6768H564.751C565.522 95.6768 566.162 95.54 566.67 95.2666C567.178 94.9932 567.559 94.6123 567.812 94.124C568.076 93.6357 568.208 93.0693 568.208 92.4248C568.208 91.7412 568.081 91.1504 567.827 90.6523C567.573 90.1543 567.188 89.7734 566.67 89.5098C566.152 89.2461 565.503 89.1143 564.722 89.1143H561.162V107H556.768V85.6719ZM568.691 107L563.828 97.4932L568.472 97.4639L573.394 106.795V107H568.691ZM580.659 85.6719V107H576.279V85.6719H580.659ZM602.295 95.8379V96.8486C602.295 98.4697 602.075 99.9248 601.636 101.214C601.196 102.503 600.576 103.602 599.775 104.51C598.975 105.408 598.018 106.097 596.904 106.575C595.801 107.054 594.575 107.293 593.228 107.293C591.89 107.293 590.664 107.054 589.551 106.575C588.447 106.097 587.49 105.408 586.68 104.51C585.869 103.602 585.239 102.503 584.79 101.214C584.351 99.9248 584.131 98.4697 584.131 96.8486V95.8379C584.131 94.207 584.351 92.752 584.79 91.4727C585.229 90.1836 585.85 89.085 586.65 88.1768C587.461 87.2686 588.418 86.5752 589.521 86.0967C590.635 85.6182 591.86 85.3789 593.198 85.3789C594.546 85.3789 595.771 85.6182 596.875 86.0967C597.988 86.5752 598.945 87.2686 599.746 88.1768C600.557 89.085 601.182 90.1836 601.621 91.4727C602.07 92.752 602.295 94.207 602.295 95.8379ZM597.856 96.8486V95.8086C597.856 94.6758 597.754 93.6797 597.549 92.8203C597.344 91.9609 597.041 91.2383 596.641 90.6523C596.24 90.0664 595.752 89.627 595.176 89.334C594.6 89.0312 593.94 88.8799 593.198 88.8799C592.456 88.8799 591.797 89.0312 591.221 89.334C590.654 89.627 590.171 90.0664 589.771 90.6523C589.38 91.2383 589.082 91.9609 588.877 92.8203C588.672 93.6797 588.569 94.6758 588.569 95.8086V96.8486C588.569 97.9717 588.672 98.9678 588.877 99.8369C589.082 100.696 589.385 101.424 589.785 102.02C590.186 102.605 590.674 103.05 591.25 103.353C591.826 103.655 592.485 103.807 593.228 103.807C593.97 103.807 594.629 103.655 595.205 103.353C595.781 103.05 596.265 102.605 596.655 102.02C597.046 101.424 597.344 100.696 597.549 99.8369C597.754 98.9678 597.856 97.9717 597.856 96.8486Z" fill="url(#paint94_linear_122_130)"/>
</g>
<defs>
<filter id="filter0_f_122_130" x="-521.19" y="-718.19" width="2141.38" height="1500.38" filterUnits="userSpaceOnUse" color-interpolation-filters="sRGB">
<feFlood flood-opacity="0" result="BackgroundImageFix"/>
<feBlend mode="normal" in="SourceGraphic" in2="BackgroundImageFix" result="shape"/>
<feGaussianBlur stdDeviation="200.095" result="effect1_foregroundBlur_122_130"/>
</filter>
<linearGradient id="paint0_linear_122_130" x1="89.5" y1="268" x2="89.5" y2="579.381" gradientUnits="userSpaceOnUse">
<stop stop-color="#F7DD43"/>
<stop offset="1" stop-color="#F7DD43" stop-opacity="0"/>
</linearGradient>
<linearGradient id="paint1_linear_122_130" x1="89.5" y1="268" x2="89.5" y2="579.381" gradientUnits="userSpaceOnUse">
<stop stop-color="#F7DD43"/>
<stop offset="1" stop-color="#F7DD43" stop-opacity="0"/>
</linearGradient>
<linearGradient id="paint2_linear_122_130" x1="89.5" y1="268" x2="89.5" y2="579.381" gradientUnits="userSpaceOnUse">
<stop stop-color="#F7DD43"/>
<stop offset="1" stop-color="#F7DD43" stop-opacity="0"/>
</linearGradient>
<linearGradient id="paint3_linear_122_130" x1="89.5" y1="268" x2="89.5" y2="579.381" gradientUnits="userSpaceOnUse">
<stop stop-color="#F7DD43"/>
<stop offset="1" stop-color="#F7DD43" stop-opacity="0"/>
</linearGradient>
<linearGradient id="paint4_linear_122_130" x1="89.5" y1="268" x2="89.5" y2="579.381" gradientUnits="userSpaceOnUse">
<stop stop-color="#F7DD43"/>
<stop offset="1" stop-color="#F7DD43" stop-opacity="0"/>
</linearGradient>
<linearGradient id="paint5_linear_122_130" x1="89.5" y1="268" x2="89.5" y2="579.381" gradientUnits="userSpaceOnUse">
<stop stop-color="#F7DD43"/>
<stop offset="1" stop-color="#F7DD43" stop-opacity="0"/>
</linearGradient>
<linearGradient id="paint6_linear_122_130" x1="89.5" y1="268" x2="89.5" y2="579.381" gradientUnits="userSpaceOnUse">
<stop stop-color="#F7DD43"/>
<stop offset="1" stop-color="#F7DD43" stop-opacity="0"/>
</linearGradient>
<linearGradient id="paint7_linear_122_130" x1="89.5" y1="268" x2="89.5" y2="579.381" gradientUnits="userSpaceOnUse">
<stop stop-color="#F7DD43"/>
<stop offset="1" stop-color="#F7DD43" stop-opacity="0"/>
</linearGradient>
<linearGradient id="paint8_linear_122_130" x1="89.5" y1="268" x2="89.5" y2="579.381" gradientUnits="userSpaceOnUse">
<stop stop-color="#F7DD43"/>
<stop offset="1" stop-color="#F7DD43" stop-opacity="0"/>
</linearGradient>
<linearGradient id="paint9_linear_122_130" x1="89.5" y1="268" x2="89.5" y2="579.381" gradientUnits="userSpaceOnUse">
<stop stop-color="#F7DD43"/>
<stop offset="1" stop-color="#F7DD43" stop-opacity="0"/>
</linearGradient>
<linearGradient id="paint10_linear_122_130" x1="89.5" y1="268" x2="89.5" y2="579.381" gradientUnits="userSpaceOnUse">
<stop stop-color="#F7DD43"/>
<stop offset="1" stop-color="#F7DD43" stop-opacity="0"/>
</linearGradient>
<linearGradient id="paint11_linear_122_130" x1="89.5" y1="268" x2="89.5" y2="579.381" gradientUnits="userSpaceOnUse">
<stop stop-color="#F7DD43"/>
<stop offset="1" stop-color="#F7DD43" stop-opacity="0"/>
</linearGradient>
<linearGradient id="paint12_linear_122_130" x1="89.5" y1="268" x2="89.5" y2="579.381" gradientUnits="userSpaceOnUse">
<stop stop-color="#F7DD43"/>
<stop offset="1" stop-color="#F7DD43" stop-opacity="0"/>
</linearGradient>
<linearGradient id="paint13_linear_122_130" x1="89.5" y1="268" x2="89.5" y2="579.381" gradientUnits="userSpaceOnUse">
<stop stop-color="#F7DD43"/>
<stop offset="1" stop-color="#F7DD43" stop-opacity="0"/>
</linearGradient>
<linearGradient id="paint14_linear_122_130" x1="89.5" y1="268" x2="89.5" y2="579.381" gradientUnits="userSpaceOnUse">
<stop stop-color="#F7DD43"/>
<stop offset="1" stop-color="#F7DD43" stop-opacity="0"/>
</linearGradient>
<linearGradient id="paint15_linear_122_130" x1="89.5" y1="268" x2="89.5" y2="579.381" gradientUnits="userSpaceOnUse">
<stop stop-color="#F7DD43"/>
<stop offset="1" stop-color="#F7DD43" stop-opacity="0"/>
</linearGradient>
<linearGradient id="paint16_linear_122_130" x1="89.5" y1="268" x2="89.5" y2="579.381" gradientUnits="userSpaceOnUse">
<stop stop-color="#F7DD43"/>
<stop offset="1" stop-color="#F7DD43" stop-opacity="0"/>
</linearGradient>
<linearGradient id="paint17_linear_122_130" x1="89.5" y1="268" x2="89.5" y2="579.381" gradientUnits="userSpaceOnUse">
<stop stop-color="#F7DD43"/>
<stop offset="1" stop-color="#F7DD43" stop-opacity="0"/>
</linearGradient>
<linearGradient id="paint18_linear_122_130" x1="89.5" y1="268" x2="89.5" y2="579.381" gradientUnits="userSpaceOnUse">
<stop stop-color="#F7DD43"/>
<stop offset="1" stop-color="#F7DD43" stop-opacity="0"/>
</linearGradient>
<linearGradient id="paint19_linear_122_130" x1="89.5" y1="268" x2="89.5" y2="579.381" gradientUnits="userSpaceOnUse">
<stop stop-color="#F7DD43"/>
<stop offset="1" stop-color="#F7DD43" stop-opacity="0"/>
</linearGradient>
<linearGradient id="paint20_linear_122_130" x1="89.5" y1="268" x2="89.5" y2="579.381" gradientUnits="userSpaceOnUse">
<stop stop-color="#F7DD43"/>
<stop offset="1" stop-color="#F7DD43" stop-opacity="0"/>
</linearGradient>
<linearGradient id="paint21_linear_122_130" x1="89.5" y1="268" x2="89.5" y2="579.381" gradientUnits="userSpaceOnUse">
<stop stop-color="#F7DD43"/>
<stop offset="1" stop-color="#F7DD43" stop-opacity="0"/>
</linearGradient>
<linearGradient id="paint22_linear_122_130" x1="89.5" y1="268" x2="89.5" y2="579.381" gradientUnits="userSpaceOnUse">
<stop stop-color="#F7DD43"/>
<stop offset="1" stop-color="#F7DD43" stop-opacity="0"/>
</linearGradient>
<linearGradient id="paint23_linear_122_130" x1="89.5" y1="268" x2="89.5" y2="579.381" gradientUnits="userSpaceOnUse">
<stop stop-color="#F7DD43"/>
<stop offset="1" stop-color="#F7DD43" stop-opacity="0"/>
</linearGradient>
<linearGradient id="paint24_linear_122_130" x1="89.5" y1="268" x2="89.5" y2="579.381" gradientUnits="userSpaceOnUse">
<stop stop-color="#F7DD43"/>
<stop offset="1" stop-color="#F7DD43" stop-opacity="0"/>
</linearGradient>
<linearGradient id="paint25_linear_122_130" x1="89.5" y1="268" x2="89.5" y2="579.381" gradientUnits="userSpaceOnUse">
<stop stop-color="#F7DD43"/>
<stop offset="1" stop-color="#F7DD43" stop-opacity="0"/>
</linearGradient>
<linearGradient id="paint26_linear_122_130" x1="89.5" y1="268" x2="89.5" y2="579.381" gradientUnits="userSpaceOnUse">
<stop stop-color="#F7DD43"/>
<stop offset="1" stop-color="#F7DD43" stop-opacity="0"/>
</linearGradient>
<linearGradient id="paint27_linear_122_130" x1="89.5" y1="268" x2="89.5" y2="579.381" gradientUnits="userSpaceOnUse">
<stop stop-color="#F7DD43"/>
<stop offset="1" stop-color="#F7DD43" stop-opacity="0"/>
</linearGradient>
<linearGradient id="paint28_linear_122_130" x1="89.5" y1="268" x2="89.5" y2="579.381" gradientUnits="userSpaceOnUse">
<stop stop-color="#F7DD43"/>
<stop offset="1" stop-color="#F7DD43" stop-opacity="0"/>
</linearGradient>
<linearGradient id="paint29_linear_122_130" x1="89.5" y1="268" x2="89.5" y2="579.381" gradientUnits="userSpaceOnUse">
<stop stop-color="#F7DD43"/>
<stop offset="1" stop-color="#F7DD43" stop-opacity="0"/>
</linearGradient>
<linearGradient id="paint30_linear_122_130" x1="89.5" y1="268" x2="89.5" y2="579.381" gradientUnits="userSpaceOnUse">
<stop stop-color="#F7DD43"/>
<stop offset="1" stop-color="#F7DD43" stop-opacity="0"/>
</linearGradient>
<linearGradient id="paint31_linear_122_130" x1="89.5" y1="268" x2="89.5" y2="579.381" gradientUnits="userSpaceOnUse">
<stop stop-color="#F7DD43"/>
<stop offset="1" stop-color="#F7DD43" stop-opacity="0"/>
</linearGradient>
<linearGradient id="paint32_linear_122_130" x1="89.5" y1="268" x2="89.5" y2="579.381" gradientUnits="userSpaceOnUse">
<stop stop-color="#F7DD43"/>
<stop offset="1" stop-color="#F7DD43" stop-opacity="0"/>
</linearGradient>
<linearGradient id="paint33_linear_122_130" x1="89.5" y1="268" x2="89.5" y2="579.381" gradientUnits="userSpaceOnUse">
<stop stop-color="#F7DD43"/>
<stop offset="1" stop-color="#F7DD43" stop-opacity="0"/>
</linearGradient>
<linearGradient id="paint34_linear_122_130" x1="89.5" y1="268" x2="89.5" y2="579.381" gradientUnits="userSpaceOnUse">
<stop stop-color="#F7DD43"/>
<stop offset="1" stop-color="#F7DD43" stop-opacity="0"/>
</linearGradient>
<linearGradient id="paint35_linear_122_130" x1="89.5" y1="268" x2="89.5" y2="579.381" gradientUnits="userSpaceOnUse">
<stop stop-color="#F7DD43"/>
<stop offset="1" stop-color="#F7DD43" stop-opacity="0"/>
</linearGradient>
<linearGradient id="paint36_linear_122_130" x1="89.5" y1="268" x2="89.5" y2="579.381" gradientUnits="userSpaceOnUse">
<stop stop-color="#F7DD43"/>
<stop offset="1" stop-color="#F7DD43" stop-opacity="0"/>
</linearGradient>
<linearGradient id="paint37_linear_122_130" x1="89.5" y1="268" x2="89.5" y2="579.381" gradientUnits="userSpaceOnUse">
<stop stop-color="#F7DD43"/>
<stop offset="1" stop-color="#F7DD43" stop-opacity="0"/>
</linearGradient>
<linearGradient id="paint38_linear_122_130" x1="89.5" y1="268" x2="89.5" y2="579.381" gradientUnits="userSpaceOnUse">
<stop stop-color="#F7DD43"/>
<stop offset="1" stop-color="#F7DD43" stop-opacity="0"/>
</linearGradient>
<linearGradient id="paint39_linear_122_130" x1="89.5" y1="268" x2="89.5" y2="579.381" gradientUnits="userSpaceOnUse">
<stop stop-color="#F7DD43"/>
<stop offset="1" stop-color="#F7DD43" stop-opacity="0"/>
</linearGradient>
<linearGradient id="paint40_linear_122_130" x1="89.5" y1="268" x2="89.5" y2="579.381" gradientUnits="userSpaceOnUse">
<stop stop-color="#F7DD43"/>
<stop offset="1" stop-color="#F7DD43" stop-opacity="0"/>
</linearGradient>
<linearGradient id="paint41_linear_122_130" x1="89.5" y1="268" x2="89.5" y2="579.381" gradientUnits="userSpaceOnUse">
<stop stop-color="#F7DD43"/>
<stop offset="1" stop-color="#F7DD43" stop-opacity="0"/>
</linearGradient>
<linearGradient id="paint42_linear_122_130" x1="89.5" y1="268" x2="89.5" y2="579.381" gradientUnits="userSpaceOnUse">
<stop stop-color="#F7DD43"/>
<stop offset="1" stop-color="#F7DD43" stop-opacity="0"/>
</linearGradient>
<linearGradient id="paint43_linear_122_130" x1="89.5" y1="268" x2="89.5" y2="579.381" gradientUnits="userSpaceOnUse">
<stop stop-color="#F7DD43"/>
<stop offset="1" stop-color="#F7DD43" stop-opacity="0"/>
</linearGradient>
<linearGradient id="paint44_linear_122_130" x1="89.5" y1="268" x2="89.5" y2="579.381" gradientUnits="userSpaceOnUse">
<stop stop-color="#F7DD43"/>
<stop offset="1" stop-color="#F7DD43" stop-opacity="0"/>
</linearGradient>
<linearGradient id="paint45_linear_122_130" x1="89.5" y1="268" x2="89.5" y2="579.381" gradientUnits="userSpaceOnUse">
<stop stop-color="#F7DD43"/>
<stop offset="1" stop-color="#F7DD43" stop-opacity="0"/>
</linearGradient>
<linearGradient id="paint46_linear_122_130" x1="89.5" y1="268" x2="89.5" y2="579.381" gradientUnits="userSpaceOnUse">
<stop stop-color="#F7DD43"/>
<stop offset="1" stop-color="#F7DD43" stop-opacity="0"/>
</linearGradient>
<linearGradient id="paint47_linear_122_130" x1="975.5" y1="-32" x2="975.5" y2="266.818" gradientUnits="userSpaceOnUse">
<stop stop-color="#F7DD43"/>
<stop offset="1" stop-color="#F7DD43" stop-opacity="0"/>
</linearGradient>
<linearGradient id="paint48_linear_122_130" x1="975.5" y1="-32" x2="975.5" y2="266.818" gradientUnits="userSpaceOnUse">
<stop stop-color="#F7DD43"/>
<stop offset="1" stop-color="#F7DD43" stop-opacity="0"/>
</linearGradient>
<linearGradient id="paint49_linear_122_130" x1="975.5" y1="-32" x2="975.5" y2="266.818" gradientUnits="userSpaceOnUse">
<stop stop-color="#F7DD43"/>
<stop offset="1" stop-color="#F7DD43" stop-opacity="0"/>
</linearGradient>
<linearGradient id="paint50_linear_122_130" x1="975.5" y1="-32" x2="975.5" y2="266.818" gradientUnits="userSpaceOnUse">
<stop stop-color="#F7DD43"/>
<stop offset="1" stop-color="#F7DD43" stop-opacity="0"/>
</linearGradient>
<linearGradient id="paint51_linear_122_130" x1="975.5" y1="-32" x2="975.5" y2="266.818" gradientUnits="userSpaceOnUse">
<stop stop-color="#F7DD43"/>
<stop offset="1" stop-color="#F7DD43" stop-opacity="0"/>
</linearGradient>
<linearGradient id="paint52_linear_122_130" x1="975.5" y1="-32" x2="975.5" y2="266.818" gradientUnits="userSpaceOnUse">
<stop stop-color="#F7DD43"/>
<stop offset="1" stop-color="#F7DD43" stop-opacity="0"/>
</linearGradient>
<linearGradient id="paint53_linear_122_130" x1="975.5" y1="-32" x2="975.5" y2="266.818" gradientUnits="userSpaceOnUse">
<stop stop-color="#F7DD43"/>
<stop offset="1" stop-color="#F7DD43" stop-opacity="0"/>
</linearGradient>
<linearGradient id="paint54_linear_122_130" x1="975.5" y1="-32" x2="975.5" y2="266.818" gradientUnits="userSpaceOnUse">
<stop stop-color="#F7DD43"/>
<stop offset="1" stop-color="#F7DD43" stop-opacity="0"/>
</linearGradient>
<linearGradient id="paint55_linear_122_130" x1="975.5" y1="-32" x2="975.5" y2="266.818" gradientUnits="userSpaceOnUse">
<stop stop-color="#F7DD43"/>
<stop offset="1" stop-color="#F7DD43" stop-opacity="0"/>
</linearGradient>
<linearGradient id="paint56_linear_122_130" x1="975.5" y1="-32" x2="975.5" y2="266.818" gradientUnits="userSpaceOnUse">
<stop stop-color="#F7DD43"/>
<stop offset="1" stop-color="#F7DD43" stop-opacity="0"/>
</linearGradient>
<linearGradient id="paint57_linear_122_130" x1="975.5" y1="-32" x2="975.5" y2="266.818" gradientUnits="userSpaceOnUse">
<stop stop-color="#F7DD43"/>
<stop offset="1" stop-color="#F7DD43" stop-opacity="0"/>
</linearGradient>
<linearGradient id="paint58_linear_122_130" x1="975.5" y1="-32" x2="975.5" y2="266.818" gradientUnits="userSpaceOnUse">
<stop stop-color="#F7DD43"/>
<stop offset="1" stop-color="#F7DD43" stop-opacity="0"/>
</linearGradient>
<linearGradient id="paint59_linear_122_130" x1="975.5" y1="-32" x2="975.5" y2="266.818" gradientUnits="userSpaceOnUse">
<stop stop-color="#F7DD43"/>
<stop offset="1" stop-color="#F7DD43" stop-opacity="0"/>
</linearGradient>
<linearGradient id="paint60_linear_122_130" x1="975.5" y1="-32" x2="975.5" y2="266.818" gradientUnits="userSpaceOnUse">
<stop stop-color="#F7DD43"/>
<stop offset="1" stop-color="#F7DD43" stop-opacity="0"/>
</linearGradient>
<linearGradient id="paint61_linear_122_130" x1="975.5" y1="-32" x2="975.5" y2="266.818" gradientUnits="userSpaceOnUse">
<stop stop-color="#F7DD43"/>
<stop offset="1" stop-color="#F7DD43" stop-opacity="0"/>
</linearGradient>
<linearGradient id="paint62_linear_122_130" x1="975.5" y1="-32" x2="975.5" y2="266.818" gradientUnits="userSpaceOnUse">
<stop stop-color="#F7DD43"/>
<stop offset="1" stop-color="#F7DD43" stop-opacity="0"/>
</linearGradient>
<linearGradient id="paint63_linear_122_130" x1="975.5" y1="-32" x2="975.5" y2="266.818" gradientUnits="userSpaceOnUse">
<stop stop-color="#F7DD43"/>
<stop offset="1" stop-color="#F7DD43" stop-opacity="0"/>
</linearGradient>
<linearGradient id="paint64_linear_122_130" x1="975.5" y1="-32" x2="975.5" y2="266.818" gradientUnits="userSpaceOnUse">
<stop stop-color="#F7DD43"/>
<stop offset="1" stop-color="#F7DD43" stop-opacity="0"/>
</linearGradient>
<linearGradient id="paint65_linear_122_130" x1="975.5" y1="-32" x2="975.5" y2="266.818" gradientUnits="userSpaceOnUse">
<stop stop-color="#F7DD43"/>
<stop offset="1" stop-color="#F7DD43" stop-opacity="0"/>
</linearGradient>
<linearGradient id="paint66_linear_122_130" x1="975.5" y1="-32" x2="975.5" y2="266.818" gradientUnits="userSpaceOnUse">
<stop stop-color="#F7DD43"/>
<stop offset="1" stop-color="#F7DD43" stop-opacity="0"/>
</linearGradient>
<linearGradient id="paint67_linear_122_130" x1="975.5" y1="-32" x2="975.5" y2="266.818" gradientUnits="userSpaceOnUse">
<stop stop-color="#F7DD43"/>
<stop offset="1" stop-color="#F7DD43" stop-opacity="0"/>
</linearGradient>
<linearGradient id="paint68_linear_122_130" x1="975.5" y1="-32" x2="975.5" y2="266.818" gradientUnits="userSpaceOnUse">
<stop stop-color="#F7DD43"/>
<stop offset="1" stop-color="#F7DD43" stop-opacity="0"/>
</linearGradient>
<linearGradient id="paint69_linear_122_130" x1="975.5" y1="-32" x2="975.5" y2="266.818" gradientUnits="userSpaceOnUse">
<stop stop-color="#F7DD43"/>
<stop offset="1" stop-color="#F7DD43" stop-opacity="0"/>
</linearGradient>
<linearGradient id="paint70_linear_122_130" x1="975.5" y1="-32" x2="975.5" y2="266.818" gradientUnits="userSpaceOnUse">
<stop stop-color="#F7DD43"/>
<stop offset="1" stop-color="#F7DD43" stop-opacity="0"/>
</linearGradient>
<linearGradient id="paint71_linear_122_130" x1="975.5" y1="-32" x2="975.5" y2="266.818" gradientUnits="userSpaceOnUse">
<stop stop-color="#F7DD43"/>
<stop offset="1" stop-color="#F7DD43" stop-opacity="0"/>
</linearGradient>
<linearGradient id="paint72_linear_122_130" x1="975.5" y1="-32" x2="975.5" y2="266.818" gradientUnits="userSpaceOnUse">
<stop stop-color="#F7DD43"/>
<stop offset="1" stop-color="#F7DD43" stop-opacity="0"/>
</linearGradient>
<linearGradient id="paint73_linear_122_130" x1="975.5" y1="-32" x2="975.5" y2="266.818" gradientUnits="userSpaceOnUse">
<stop stop-color="#F7DD43"/>
<stop offset="1" stop-color="#F7DD43" stop-opacity="0"/>
</linearGradient>
<linearGradient id="paint74_linear_122_130" x1="975.5" y1="-32" x2="975.5" y2="266.818" gradientUnits="userSpaceOnUse">
<stop stop-color="#F7DD43"/>
<stop offset="1" stop-color="#F7DD43" stop-opacity="0"/>
</linearGradient>
<linearGradient id="paint75_linear_122_130" x1="975.5" y1="-32" x2="975.5" y2="266.818" gradientUnits="userSpaceOnUse">
<stop stop-color="#F7DD43"/>
<stop offset="1" stop-color="#F7DD43" stop-opacity="0"/>
</linearGradient>
<linearGradient id="paint76_linear_122_130" x1="975.5" y1="-32" x2="975.5" y2="266.818" gradientUnits="userSpaceOnUse">
<stop stop-color="#F7DD43"/>
<stop offset="1" stop-color="#F7DD43" stop-opacity="0"/>
</linearGradient>
<linearGradient id="paint77_linear_122_130" x1="975.5" y1="-32" x2="975.5" y2="266.818" gradientUnits="userSpaceOnUse">
<stop stop-color="#F7DD43"/>
<stop offset="1" stop-color="#F7DD43" stop-opacity="0"/>
</linearGradient>
<linearGradient id="paint78_linear_122_130" x1="975.5" y1="-32" x2="975.5" y2="266.818" gradientUnits="userSpaceOnUse">
<stop stop-color="#F7DD43"/>
<stop offset="1" stop-color="#F7DD43" stop-opacity="0"/>
</linearGradient>
<linearGradient id="paint79_linear_122_130" x1="975.5" y1="-32" x2="975.5" y2="266.818" gradientUnits="userSpaceOnUse">
<stop stop-color="#F7DD43"/>
<stop offset="1" stop-color="#F7DD43" stop-opacity="0"/>
</linearGradient>
<linearGradient id="paint80_linear_122_130" x1="975.5" y1="-32" x2="975.5" y2="266.818" gradientUnits="userSpaceOnUse">
<stop stop-color="#F7DD43"/>
<stop offset="1" stop-color="#F7DD43" stop-opacity="0"/>
</linearGradient>
<linearGradient id="paint81_linear_122_130" x1="975.5" y1="-32" x2="975.5" y2="266.818" gradientUnits="userSpaceOnUse">
<stop stop-color="#F7DD43"/>
<stop offset="1" stop-color="#F7DD43" stop-opacity="0"/>
</linearGradient>
<linearGradient id="paint82_linear_122_130" x1="975.5" y1="-32" x2="975.5" y2="266.818" gradientUnits="userSpaceOnUse">
<stop stop-color="#F7DD43"/>
<stop offset="1" stop-color="#F7DD43" stop-opacity="0"/>
</linearGradient>
<linearGradient id="paint83_linear_122_130" x1="975.5" y1="-32" x2="975.5" y2="266.818" gradientUnits="userSpaceOnUse">
<stop stop-color="#F7DD43"/>
<stop offset="1" stop-color="#F7DD43" stop-opacity="0"/>
</linearGradient>
<linearGradient id="paint84_linear_122_130" x1="975.5" y1="-32" x2="975.5" y2="266.818" gradientUnits="userSpaceOnUse">
<stop stop-color="#F7DD43"/>
<stop offset="1" stop-color="#F7DD43" stop-opacity="0"/>
</linearGradient>
<linearGradient id="paint85_linear_122_130" x1="975.5" y1="-32" x2="975.5" y2="266.818" gradientUnits="userSpaceOnUse">
<stop stop-color="#F7DD43"/>
<stop offset="1" stop-color="#F7DD43" stop-opacity="0"/>
</linearGradient>
<linearGradient id="paint86_linear_122_130" x1="975.5" y1="-32" x2="975.5" y2="266.818" gradientUnits="userSpaceOnUse">
<stop stop-color="#F7DD43"/>
<stop offset="1" stop-color="#F7DD43" stop-opacity="0"/>
</linearGradient>
<linearGradient id="paint87_linear_122_130" x1="975.5" y1="-32" x2="975.5" y2="266.818" gradientUnits="userSpaceOnUse">
<stop stop-color="#F7DD43"/>
<stop offset="1" stop-color="#F7DD43" stop-opacity="0"/>
</linearGradient>
<linearGradient id="paint88_linear_122_130" x1="975.5" y1="-32" x2="975.5" y2="266.818" gradientUnits="userSpaceOnUse">
<stop stop-color="#F7DD43"/>
<stop offset="1" stop-color="#F7DD43" stop-opacity="0"/>
</linearGradient>
<linearGradient id="paint89_linear_122_130" x1="975.5" y1="-32" x2="975.5" y2="266.818" gradientUnits="userSpaceOnUse">
<stop stop-color="#F7DD43"/>
<stop offset="1" stop-color="#F7DD43" stop-opacity="0"/>
</linearGradient>
<linearGradient id="paint90_linear_122_130" x1="975.5" y1="-32" x2="975.5" y2="266.818" gradientUnits="userSpaceOnUse">
<stop stop-color="#F7DD43"/>
<stop offset="1" stop-color="#F7DD43" stop-opacity="0"/>
</linearGradient>
<linearGradient id="paint91_linear_122_130" x1="975.5" y1="-32" x2="975.5" y2="266.818" gradientUnits="userSpaceOnUse">
<stop stop-color="#F7DD43"/>
<stop offset="1" stop-color="#F7DD43" stop-opacity="0"/>
</linearGradient>
<linearGradient id="paint92_linear_122_130" x1="975.5" y1="-32" x2="975.5" y2="266.818" gradientUnits="userSpaceOnUse">
<stop stop-color="#F7DD43"/>
<stop offset="1" stop-color="#F7DD43" stop-opacity="0"/>
</linearGradient>
<linearGradient id="paint93_linear_122_130" x1="975.5" y1="-32" x2="975.5" y2="266.818" gradientUnits="userSpaceOnUse">
<stop stop-color="#F7DD43"/>
<stop offset="1" stop-color="#F7DD43" stop-opacity="0"/>
</linearGradient>
<linearGradient id="paint94_linear_122_130" x1="512.5" y1="78" x2="512.5" y2="116" gradientUnits="userSpaceOnUse">
<stop stop-color="white"/>
<stop offset="1" stop-color="#D9D9D9" stop-opacity="0.8"/>
</linearGradient>
<clipPath id="clip0_122_130">
<rect width="1024" height="753" fill="white"/>
</clipPath>
</defs>
</svg>
